<svg xmlns="http://www.w3.org/2000/svg" xml:space="preserve" width="3048" height="1545" overflow="hidden"><g fill="#EEE" fill-rule="evenodd"><path d="M1015.99 763.15c6.64 5.46 19.42 8.84 19.39 8.84-3.5 18.02-20.75 13-20.75 13 .93-6 1.36-21.84 1.36-21.84m1015.81-.07s.42 15.84 1.33 21.84c0 0-17.25 4.98-20.75-13.03 0 0 12.74-3.35 19.42-8.81M995.35 698.17s-6.04-.15-7.22 5.85c0 0-5.56 18.98 8.55 19.35 0 0 10.12-1.75 4.5-16.99 0 0-5.95-3.17-5.83-8.21m1057.11-.06c.12 5.01-5.83 8.21-5.83 8.21-5.65 15.23 4.47 16.99 4.47 16.99 14.11-.37 8.58-19.35 8.58-19.35-1.18-6-7.22-5.85-7.22-5.85m-591.29-10.02c5.32.22 11.11.82 17.45 1.91 0 0-27.62 8.78-32.87 13.54 0 0-15.4 6.31-8.67 12.67 0 0 7.04.33 14.31-4.34 0 0 24.67-10.41 30.77-11.13 0 0-16.88 16.31-26.33 23.91 0 0-9.51 9.62-6.76 13.45 3.47 2.99 4.04.64 13.52-7.6 0 0 22.01-18.09 26.12-19.9 0 0-14.22 23.49-16.46 28.41 0 0-3.95 9.38-1.14 11.16 2.59.99 3.53.3 9.24-6.52 0 0 15.42-22.68 17.87-26.33 0 0-4.08 22.44-6.64 28.38 0 0-.34 7.27 2.26 7.75 1.24.85 4.41.36 5.95-5.85l13.49-28.01s6.28 21.68-.27 53.58c0 0-.93 20.09-21.92 16.08 0 0-5.58 2.95-9.33 5.61-7.09 5.03-15.48 9.8-30.07-3.44 0 0-37.92 13.3-36.29-20.84 0 0-3.02-3.04-6.79-5.37-6.4-3.92-14.31-12.15-9.69-29.64 0 0-18.45-14.96 1.42-30.13 0 0 8.54-6.75 23.73-11.97 9.44-3.23 21.14-6.03 37.1-5.38m118.69-.09c14.5.15 38.13 3.06 61.07 17.6 0 0 22.71 15.45 3.29 26.63 0 0 3.05 15.26-.42 24.93 0 0-7.25 9.49-16.43 12.08 0 0 3.5 22.09-14.14 27.32 0 0-13.8 3.9-24.83-2.69 0 0-16 18.92-36.15-2.45 0 0-20.66 5.08-24.22-15.5 0 0-3.38-40.25 3.53-58.83 0 0 8.55 26.86 12.05 33.09 0 0 3.93 12.66 9.4 9.52 0 0 4.23-1.7-.12-13.63 0 0-5.11-19.92-7.1-26.05 0 0 17.4 15.95 21.71 20.7 0 0 7.83 10.21 11.72 8.13 0 0 3.93-3.21-5.4-13.87 0 0-12.66-20.25-17.04-23.48 0 0 24.71 12.9 29.93 14.65 0 0 4.02 2.84 6.26 3.69 0 0 5.52 3.29 7.12 1.09 0 0 .94-3.75-3.47-6.23 0 0-26.28-20.15-28.84-21.39 0 0 29.17 6.28 33.31 6.86 0 0 10.78 3.9 6.67-5.35-1.69-.95-3.43-1.8-5.22-2.54-9.85-3.99-32.65-12.66-36.79-13.45 0 0 5.41-.91 14.11-.83m545.49-81.51c-6.18 1.37-2.42 12.83-2.42 12.83s4.42 13.73-1.51 18.41c0 0-2.08 6.85-.41 12.85 0 0 3.95 6.7-.4 13.61 0 0 .69 25.65-3.78 28.04 0 0-2.87 6.12-1.95 11.37 0 0 3.28 10.47-1.88 14.39 0 0-3.39 4.86-.49 9.81 0 0 3.7 15.51-1.2 20.67-2.08.48-2.42 7.03-2.42 7.03 1.71 7.52-4.8 27.31-4.8 27.31-2.79 8.63 3.81 10.95 3.81 10.95 11.62 1.7 9.14-15.32 9.14-15.32 1.39-4.08.7-12.1.7-12.1-.81-12.07 5.01-19.26 5.01-19.26 2.39-5.1 1.2-11.58 1.2-11.58-2.7-7.97 3.54-19.23 3.54-19.23 1.87-5.58-.33-12.07-.33-12.07-1.69-6.48 2.67-14.15 2.67-14.15.93-2.05 1.3-8.08 1.3-8.08-1.16-5.5-1.09-10.5.04-16.6.26-1.33.58-2.57.95-3.71.88-2.87 1.15-8.45.96-10.44-.79-8.42.27-18.59.27-18.59.85-6.07-.86-14.06-.86-14.06-1.76-9.02-3.85-11.98-3.85-11.98-1.32-.28-2.41-.29-3.29-.1m-1202.79-.11c-.88-.19-1.97-.18-3.3.1 0 0-2.09 2.96-3.87 11.98 0 0-1.72 8-.87 14.06 0 0 1.02 10.2.24 18.59-.18 2 .09 7.58.96 10.45.34 1.15.67 2.38.91 3.71 1.12 6.1 1.21 11.11.06 16.6 0 0 .33 6.04 1.3 8.09 0 0 4.32 7.66 2.63 14.15 0 0-2.21 6.49-.33 12.07 0 0 6.25 11.26 3.5 19.23 0 0-1.18 6.52 1.21 11.62 0 0 5.86 7.21 5.01 19.25 0 0-.72 8.03.67 12.11 0 0-2.48 17.05 9.15 15.33 0 0 6.62-2.33 3.84-10.96 0 0-6.53-19.8-4.81-27.31.03.06-.3-6.49-2.29-7.03-4.9-5.16-1.21-20.68-1.21-20.68 2.9-4.95-.48-9.83-.48-9.83-5.2-3.93-1.88-14.4-1.88-14.4.91-5.25-1.96-11.38-1.96-11.38-4.47-2.38-3.78-28.04-3.78-28.04-4.35-6.91-.39-13.61-.39-13.61 1.66-6-.39-12.85-.39-12.85-5.92-4.68-1.51-18.42-1.51-18.42s3.79-11.46-2.41-12.83m493.84-35.15c8.88-.52 17.29 5.22 17.29 5.22 28.05 16.01 56.69 51.33 56.69 51.33-4.99-5.1-28.95-19.68-38.7-25.51-1.21-.73-8.08-5.32-9.75-1.97-1.45 2.91 7.93 8.74 7.87 8.74 10.81 7.11 29.53 27.88 29.53 27.88-6.3-5.37-37.13-18.73-37.13-18.73-7.48-2.25-9.11.69-8.08 2.39 1.88 3.13 9.32 6.02 9.32 6.02 6.88 3.85 34.74 23.93 34.74 23.93-7.97-2.92-43.03-9.14-43.03-9.14-10.6-.49-10 .09-8.24 3.16 1.06 1.82 8.87 4.98 8.87 4.98 6.94 2.85 39.28 13.51 39.28 13.51-10.02-2-41.03-.42-41.03-.42-4.79.27-5.85 2.97-5.3 4.49.3.85 2.33 1.64 4.99 2.34 1.67.43 4.52.97 4.52.97 11.72.55 42.48 7.32 42.48 7.32-13.66.37-28.04-.06-47.45 4.59-6.78 1.61-10.48 3.31-14.87 4.86-5.45 1.94-10.78 3.55-10.78 3.55-7.72 3.16-12.29 3.46-12.29 3.46-21.32 2.55-17.72-20.59-17.72-20.59-16.38-8.2-11.38-19.5-8.45-24.72.88-1.55 1.18-3.49 1.18-3.49-10.93-17.62-.69-27.03 5.03-31.68 1.91-1.55 3.24-4.4 3.24-4.4-3.33-20.05 12.08-23.88 19.38-25.42 2.18-.46 3.64-2.37 3.64-2.37 3.95-7.42 9.44-9.98 14.77-10.3m221.7-.02c4.91-.18 14.81 1.43 15.58 17.29 0 0 27.63 10.33 17.85 25.96 0 0 20.4 14.04 5.53 31.42 0 0 7.41 13.41-6.13 23.83 0 0 6.16 18.37-14.21 24.46 0 0-8.09 1.63-15.89-3.77 0 0-19.56-10.99-57.69-11.77-3.94-1.18-21.04-1-21.04-.94 16.65-12.26 53.54-6.5 53.54-6.5 5.42-.25 5.69-4.95 2.29-6.06-4.06-1.33-11.98-1.45-11.98-1.45-13.99-1.68-46.19-.18-46.19-.18 10.35-6.53 50.86-13.67 50.86-13.67 5.71-1.63 7.31-.94 7.13-4.43.12-3.28-5.78-3.56-5.78-3.56-10.02-.48-43.37 3.98-43.37 3.98 11.35-6.51 40.93-16.18 40.93-16.18 8.28-2.25 9.21-3.58 9.21-3.58 4.3-5.81-8.88-3.43-8.88-3.43-14.11 1.35-48.9 14.79-48.9 14.79 2.23-4.94 36.29-24.43 36.29-24.43 9.18-2.59 7.32-5.7 7.32-5.7-.6-5.81-9.97-1.47-9.97-1.47-16.37 6.26-36.98 17.35-36.98 17.35s26.96-38.95 77.76-51.63c0 0 1.08-.26 2.72-.33m-111.56-6.33c10.07 1.54 5.84 24.58 5.84 24.58 6.69 9.43.55 31.38.55 31.38 5.62 10.37 3.88 25.46 3.88 25.46s6.69 9.43.73 27.37c3.88 25.47-16.49 25.53-16.49 25.53-23.22-5.12-14.76-33.07-14.76-33.07-3.48-12.31 3.39-28.16 3.39-28.16-3.63-9.28 5.23-24.04 5.23-24.04-2.63-9.22 1.16-24.22 1.16-24.22-3.12-20.37 5.22-24.04 5.22-24.04 2.08-.79 3.81-1.01 5.25-.79m-485.57-20.45c8.47.75 12.54 7.66 12.54 7.66 9.93 23.67-11.36 28.37-11.36 28.37-23.57 5.41-32.69-20.52-32.69-20.52-5.13-6.19-1.24-10.59-1.18-10.59 3.11-3.68 7.59-1.3 7.59-1.3 2.17 3.08 5.86 6.19 5.86 6.19l3.05-1.42c2.41-5.95 6.22-6.61 6.22-6.61 3.82-1.6 7.14-2.03 9.97-1.78m966-.05c2.83-.25 6.15.18 9.97 1.77 0 0 3.81.66 6.22 6.64l3.05 1.41s3.72-3.1 5.89-6.18c0 0 4.47-2.39 7.58 1.29 0 0 3.9 4.41-1.23 10.6 0 0-9.13 25.89-32.69 20.49 0 0-21.26-4.71-11.32-28.37 0 0 4.06-6.89 12.53-7.65m172.23-3.33s7.72 5.82 23.5 3.14c0 0 1.22 16.59-20.35 29.99 0 0-1.05-12.04-5.95-25.5 0 0-7.83-10.35 2.8-7.63m-1310.51-.03c10.63-2.75 2.81 7.6 2.81 7.63-4.9 13.46-5.98 25.51-5.98 25.51-21.54-13.44-20.33-30-20.33-30 15.79 2.68 23.5-3.14 23.5-3.14m1225.58-43.598c-1.2-.219-2.59-.053-3.3 1.471 0 0-1.96 1.568-4.44 3.651 0 0-2.44 2.082-2.83 7.121-.22 2.263.9 4.074 3.17 5.461 0 0 9.21 5.282 10.96-4.827 0 0 1.33-7.061-1.33-12.04 0-.015-1.02-.619-2.23-.837m-1140.61-.026c-1.2.223-2.23.826-2.23.826-2.66 4.949-1.33 12.042-1.33 12.042 1.75 10.11 10.94 4.829 10.94 4.829 2.26-1.359 3.38-3.17 3.17-5.463-.36-5.04-2.84-7.123-2.84-7.123a174 174 0 0 0-4.44-3.651c-.7-1.524-2.07-1.683-3.27-1.46m572.55-14.101c12.79 1.312 21.71 15.801 21.71 15.801 31.85-4.499 35.97 13.554 37.99 24.798.66 3.778 3.58 9.176 3.55 9.235 13.13-1.379 18.73 7.891 18.73 7.891 13.18 18.62-11.59 32.47-11.59 32.47-3.26.66-10.72 7.71-17.76 14.18-10.6 9.75-21.04 20.04-21.04 20.04-8.67 13.58-8.16 2.6-8.16 2.6.18-3.98 1.38-7.94 1.38-7.94 1.42-8.94 20.65-33.05 20.65-33.05 11.83-16.46-4.72-6.23-4.72-6.23-5.15 2.75-17.97 19.16-17.97 19.16-10.69 13.49-2.5-11.13-2.5-11.13 4.42-8.81 15.26-25.31 15.26-25.31 6.59-11.721-5.81-4.28-5.81-4.28-5.24 4.73-11.59 11.45-11.59 11.45-6.44 8.7-5.96-1.29-5.96-1.29 1.39-7.94 3.01-20.869 3.01-20.869.66-13.973-7.97-1.38-7.97-1.38-3.32 6.869-6.81 16.699-6.81 16.699-2.56 11.88-5.06.75-5.06.75-2.19-6.86-6.1-19.308-6.1-19.308-2.53-10.105-6.39-.419-6.39-.419-.39 7.977.27 23.147.27 23.147.88 5.67 1.39 9.48.06 9.51-2.22.06-7.22-6.84-7.22-6.84-5.72-6.27-14.42-13.67-14.42-13.67-14.84-4.71-3.94 9.32-3.94 9.32l10.32 15c11.32 15.53 7.11 25.09 7.11 25.09-1.9-7.61-28.51-29.11-28.51-29.11-6.38-2.94-7.4 0-5.72 4.23 1.66 4.25 6.05 9.8 6.05 9.8 3.8 2.97 16.68 19.4 22.49 31.7 4.81 10.19 3.7 17.06 3.7 17.06-2.83-4.14-10.87-12.02-10.87-12.02-4.78-5.25-17.18-18.84-17.18-18.84-3.83-4.19-21.89-20.3-21.89-20.3-15.56-10.73-11.19-23.3-11.19-23.3-.07-12.86 8.85-17.779 16.01-20.268 3.97-1.379 8.16-2.608 8.16-2.608 1.47-9.927 5.77-15.744 5.77-15.744 11.84-16.432 30.65-10.555 30.65-10.555 5.39-7.736 13.6-11.365 13.6-11.365 4.94-3.516 9.63-4.543 13.9-4.105m582.98-3.28c-5.08-.372-6.19 8.407-6.19 8.407-1.4 5.069 1.5 9.656 1.5 9.656 6.9 10.32 2.24 25.559 2.24 25.559-1.45 2.564-1.36 5.672-.64 8.811.74 3.172 2.07 6.362 2.07 6.362 8.6 11.08 2.59 21.94 2.59 21.94-2.56 7.88.58 11.95.58 11.95 3.14 3.95 3.98 8.06 3.98 8.06-1.93 12.64 6.28 8.9 6.28 8.9 5.48-2.14 2.58-16.66 2.58-16.66-4.15-4.4-1.49-17.56-1.49-17.56.43-3.02-1.27-10.02-1.27-10.02-6.74-6.85-3.61-22.539-3.61-22.539 4.3-8.147-1.59-20.579-1.59-20.579-4.64-4.405-3.34-11.979-3.34-11.979 3.34-6.638-1.27-9.536-1.27-9.536-.89-.479-1.7-.719-2.42-.772m-1170.47-.098c-.72.052-1.53.292-2.42.771 0 0-4.63 2.896-1.27 9.536 0 0 1.3 7.576-3.36 11.982 0 0-5.89 12.434-1.57 20.583 0 0 3.11 15.691-3.62 22.541 0 0-1.69 7.01-1.27 10.02 0 0 2.66 13.16-1.48 17.57 0 0-2.9 14.51 2.57 16.69 0 0 8.21 3.74 6.28-8.88 0 0 .88-4.13 3.99-8.05 0 0 3.14-4.08.57-11.92 0 0-6.01-10.87 2.6-21.95 0 0 1.36-3.19 2.05-6.364.73-3.169.82-6.277-.63-8.813.03-.03-4.59-15.239 2.23-25.622 0 0 2.91-4.587 1.52-9.657 0 0-1.11-8.805-6.19-8.437m1251.7-58.363s3.41 14.996 13.08 9.475c0 0 7.19-13.791 24.83-3.682 0 0 7.88 8.509 5.05 18.739-1.25 4.375-5 12.191-11.76 13.127 0 0-12.56 10.137-27.48-11.347 0 0-8.74-15.6-3.72-26.312m-1332.82-.08c4.99 10.713-3.74 26.316-3.74 26.316-14.96 21.458-27.52 11.319-27.52 11.319-6.77-.936-10.49-8.752-11.73-13.16-2.84-10.231 5.05-18.741 5.05-18.741 17.64-10.11 24.83 3.682 24.83 3.682 9.67 5.553 13.11-9.447 13.11-9.416m1252.88-30.366c-5.16 1.684-1.35 14.482-1.35 14.482 3.99 7.424-3.23 19.704-3.23 19.704-2.09 6.85.99 9.295.99 9.295 3.15 4.435 1.04 10.289 1.04 10.289 2.56 10.743 8.93 5.04 8.93 5.04 5.22-2.414.67-12.854.67-12.854-3.26-8.963 1.72-20.429 1.72-20.429 1.42-3.803-.21-7.544-.21-7.544-2.39-4.465-2.51-8.992-2.51-8.992.78-8.057-3.25-8.963-3.25-8.963-1.15-.283-2.07-.269-2.8-.028m-1172.96-.055c-.73-.241-1.65-.254-2.79.029 0 0-4.05.905-3.27 8.963 0 0-.12 4.528-2.5 8.993 0 0-1.61 3.743-.22 7.546 0 0 4.99 11.469 1.73 20.432 0 0-4.57 10.443.66 12.857 0 0 6.41 5.705 8.94-5.039 0 0-2.11-5.856 1.03-10.293 0 0 3.08-2.445 1-9.295 0 0-7.22-12.254-3.24-19.708 0 0 3.82-12.802-1.34-14.485m83.36-1.149s4.5 1.147 2.72 11.107c0 0 .76 10.413 5.1 22.696.91 2.535 4.75 11.227 5.47 12.826 6.89 15.544 8.43 22.545 21.66 39.325 0 0-26.34-19.768-39.12-47.805-.99-2.173-3.62-8.299-4.53-11.619-1.06-3.895-2.08-10.111-1.57-18.773 0 0 1.27-10.019 10.27-7.757m1006.3-.005c9-2.232 10.27 7.786 10.27 7.786.51 8.661-.52 14.877-1.57 18.77-.91 3.318-3.54 9.444-4.53 11.615-12.78 28.004-39.15 47.768-39.15 47.768 13.23-16.747 14.77-23.747 21.66-39.288.69-1.628 4.56-10.32 5.47-12.823 4.34-12.282 5.1-22.693 5.1-22.693-1.78-10.018 2.72-11.135 2.75-11.135m47.63-35.493c-1.99-.136-3.67.852-2.41 5.348 0 0 4.77 8.932 4.23 16.477 0 0-.49 9.836 2.69 15.78 0 0 7.94 14.123-.19 21.877 0 0-3.62 5.371-.45 11.347 0 0 7.13 11.888.49 18.104 0 0-3.54 9.144-1.15 13.61 0 0 5.52 8.902 2.72 17.291 0 0-.55 7.573 3.92 5.944 0 0 7.4-6.246 10.27-11.587 0 0 8.85-7.786 1.88-15.149 0 0-7.8-8.84-1.91-15.027 0 0 5.2-3.922 1.91-13.639 0 0-9.31-8.811-3.69-24.804.03 0 2.9-5.372 2.75-10.652-.18-6.94-2.02-14.424-4.98-17.23 0 0-2.3-1.448-6.32-9.656 0 0-3.74.845-5.47-6.638 0 0-2.3-1.26-4.29-1.396m-1101.62-.031c-1.99.136-4.3 1.396-4.3 1.396-1.72 7.515-5.47 6.639-5.47 6.639-3.98 8.179-6.31 9.628-6.31 9.628-2.96 2.807-4.8 10.292-5.01 17.233-.1 5.311 2.77 10.684 2.77 10.684 5.62 15.996-3.68 24.808-3.68 24.808-3.29 9.719 1.9 13.642 1.9 13.642 5.86 6.187-1.93 15.03-1.93 15.03-7.01 7.363 1.84 15.151 1.84 15.151 2.87 5.371 10.27 11.588 10.27 11.588 4.5 1.629 3.93-5.945 3.93-5.945-2.78-8.391 2.75-17.293 2.75-17.293 2.39-4.467-1.15-13.613-1.15-13.613-6.62-6.216.48-18.107.48-18.107 3.18-5.946-.45-11.349-.45-11.349-8.09-7.755-.15-21.88-.15-21.88 3.17-5.945 2.69-15.784 2.69-15.784-.55-7.576 4.23-16.478 4.23-16.478 1.25-4.497-.42-5.485-2.41-5.35m137.73-7.918c1.05-.208 2.3-.049 3.79.743l4.98 2.142s6.95 4.196-4.38 11.981c0 0-29.12 34.437-31.41 44.426 0 0 4.04-37.152 22.65-54.747 0 0 1.24-3.922 4.37-4.545m826.22-.089c3.13.624 4.37 4.546 4.37 4.546 18.58 17.622 22.6 54.737 22.6 54.737-2.27-10.019-31.39-44.448-31.39-44.448-11.29-7.724-4.35-11.95-4.35-11.95l4.99-2.143c1.48-.792 2.74-.95 3.78-.742m175.96-15.638c-6.03-1.352-3.39 10.709-3.39 10.709.06 2.232 0 27.911 0 27.911-.52 9.084 4.77 8.932 4.77 8.932 7.58.544 5.79-9.204 5.79-9.204-.14-5.28.16-22.632.16-22.632.35-15.086-4.18-14.241-4.18-14.241-1.25-.815-2.28-1.282-3.15-1.475m-1178.15-.065c-.87.193-1.91.66-3.16 1.474 0 0-4.5-.875-4.16 14.216 0 0 .27 17.354.15 22.636 0 0-1.79 9.777 5.8 9.204 0 0 5.28.151 4.77-8.934 0 .03-.06-25.622 0-27.886 0 0 2.64-12.062-3.4-10.71m94.78-7.911 14.08 1.389c-5.44 14.939 6.86 44.454 6.86 44.454-18.82-11.589-20.91-45.874-20.94-45.843m988.57-.024s-2.09 34.248-20.97 45.835c0 0 12.33-29.51 6.89-44.448Zm-906.91-19.925c3.53.603 4.35 7.152 4.38 7.152 3.59 15.694 11.96 13.914 11.96 13.914 6.83-1.328 5.5-8.149 5.5-8.149 2.5-8.994 7.07-10.383 7.07-10.383 25.16-9.113 28.45 14.095 28.24 16.629-2.14 24.899-28.03 20.885-28.03 20.885-30.97-9.416-32.39-31.085-32.39-31.085-.84-6.549 2.06-9.174 3.27-8.963m825.32-.051c1.21-.211 4.11 2.413 3.26 8.961 0 0-1.45 21.666-32.41 31.05 0 0-25.88 3.984-28-20.88-.21-2.536 3.11-25.739 28.27-16.597 0 0 4.56 1.387 7.07 10.381 0 0-1.33 6.819 5.5 8.147 0 0 8.34 1.779 11.96-13.912 0 0 .82-6.547 4.35-7.15m131.84-.522c-.7.162-1.42.51-2.16 1.095 0 0-7.43 4.737 1.21 16.566 0 0 3.11 3.682 7.67 4.315 0 0 7.76 8.086 5.83-7.694 0 0-1.63-4.496-3.99-7.455 0 .027-3.68-7.963-8.56-6.827m-1089.03-.02c-4.87-1.155-8.57 6.84-8.57 6.84-2.36 2.958-3.99 7.454-3.99 7.454-1.94 15.784 5.83 7.696 5.83 7.696 4.56-.634 7.67-4.315 7.67-4.315 8.64-11.831 1.21-16.57 1.21-16.57-.74-.588-1.46-.94-2.15-1.105m1074.22-1.72c-5.43-.436-4.6 9.383-4.6 9.383 1.09 12.794-2.33 26.463-2.33 26.463-4.38 6.157.46 16.597.46 16.597 4.68 5.915 2.08 21.817 2.08 21.817.15 5.28 3.81 10.471 3.81 10.471 9.6 10.319 2.81 30.115 2.81 30.115-5.47 3.168-.67 12.854-.67 12.854 9.3 9.565-.21 30.446-.21 30.446-5.89 6.186 1.48 18.076 1.48 18.076 9.36 10.833.6 23.143.6 23.143-2.83 7.122.34 13.068.34 13.068 6.4 13.91-.34 25.165-.34 25.165-2.8 8.12 1.45 17.08 1.45 17.08 5.26 7.91-.51 19.13-.51 19.13 5.17 4.89.76 18.35.76 18.35-2.87 6.12-1.18 12.1-1.18 12.1 1.05 11.28-1.72 20.43-1.72 20.43-3.6 6.88-.49 9.83-.49 9.83 7.1 11.14-.87 23.42-.87 23.42-3.78.09-2.09 6.85-2.09 6.85 3.9 4.43 1.09 12.04 1.09 12.04-3.26 19.7 8.67 13.61 8.67 13.61 3.05-1.21 2.78-11.23 2.78-11.23-2.15-4.98 1.63-14.12 1.63-14.12 3.9-5.13 1.45-21.18 1.45-21.18-4.23-7.94.51-18.14.51-18.14 1.94-3.08.67-13.09.67-13.09-3.17-5.95.36-14.85.36-14.85 2.93-3.08 1.27-9.08 1.27-9.08-7.07-10.38-.46-17.35-.46-17.35 3.57-8.39-1.23-18.08-1.23-18.08-4.93-14.97.18-21.876.18-21.876 1.39-4.557-.39-14.333-.39-14.333-4.87-12.703.9-22.662.9-22.662 4.32-7.664.3-16.597.3-16.597-8.76-16.384-.12-32.438-.12-32.438 2.75-9.898-1.96-17.289-1.96-17.289-6.31-10.412-.57-21.124-.57-21.124 4.31-7.664-1.27-19.584-1.27-19.584-6.23-6.638-6.53-18.708-6.53-18.708-1.54-4.888-1.69-17.44-1.54-29.391.18-13.608.82-26.433.82-26.433 1.21-11.346-2.6-12.01-2.6-12.01-1.05-.539-1.96-.811-2.74-.873m-1059.43-.062c-.77.06-1.68.329-2.73.865 0 0-3.81.664-2.6 12.012 0 0 .6 12.826.79 26.439.15 11.95 0 24.505-1.58 29.395 0 0-.33 12.072-6.55 18.682 0 0-5.62 11.921-1.3 19.587 0 0 5.74 10.713-.57 21.126 0 0-4.75 7.424-2 17.293 0 0 8.64 16.086-.12 32.444 0 0-4.02 8.933.3 16.599 0 0 5.77 9.96.91 22.665 0 0-1.78 9.778-.39 14.337 0 0 5.1 6.936.15 21.876 0 0-4.81 9.69-1.24 18.08 0 0 6.61 6.97-.48 17.36 0 0-1.67 6 1.27 9.08 0 0 3.53 8.9.36 14.85 0 0-1.27 10.02.66 13.1 0 0 4.75 10.2.52 18.13 0 0-2.45 16.03 1.45 21.19 0 0 3.77 9.18 1.63 14.13-.03.06-.3 10.11 2.69 11.19 0 0 11.93 6.13 8.67-13.61 0 0-2.81-7.63 1.08-12.04 0 0 1.7-6.76-2.08-6.85 0 0-7.98-12.29-.88-23.42 0 0 3.11-2.93-.48-9.84 0 0-2.78-9.15-1.72-20.43 0 0 1.66-6.01-1.18-12.1 0 0-4.41-13.46.75-18.35 0 0-5.73-11.23-.48-19.14 0 0 4.26-8.93 1.48-17.05 0 0-6.73-11.257-.33-25.171 0 0 3.17-5.945.36-13.067 0 0-8.73-12.314.64-23.118 0 0 7.37-11.892 1.51-18.079 0 0-9.52-20.884-.18-30.453 0 0 4.8-9.686-.67-12.856 0 0-6.77-19.798 2.84-30.119 0 0 3.66-5.191 3.81-10.472 0 0-2.6-15.936 2.11-21.821 0 0 4.81-10.443.45-16.6 0 0-3.41-13.671-2.29-26.467 0 0 .85-9.798-4.58-9.377m33.01-26.102c-3.93-.106-8.71 3.578-8.71 3.578-3.86 2.928-6.16 4.345-6.16 4.345-11.45 5.735-5.49 8.904-5.49 8.904 4.38 5.402 10.6-1.208 10.6-1.208 3.83-2.172 9.21-5.795 9.21-5.795 6.89-2.837 3.99-8.177 3.99-8.177-.92-1.155-2.13-1.611-3.44-1.647m993.42-.029c-1.31.036-2.52.496-3.44 1.658 0 0-2.87 5.371 3.99 8.208 0 0 5.38 3.621 9.21 5.794 0 0 6.22 6.638 10.6 1.236.03-.028 5.98-3.198-5.49-8.931 0 0-2.3-1.448-6.17-4.376 0 0-4.77-3.7-8.7-3.589m-866.47-13.351c-11.38.221-17.36 1.324-17.36 1.324-16.58-.483-10.75 7.213-10.75 7.213.66 3.803 12.78 2.626 12.78 2.626 6.07-1.359 19.66-.965 19.66-.965 4.68-1.208 15.38 1.026 26.65 1.478 2.93.12 10.39 1.389 11.84-.422 4.68-5.915-6.56-8.482-6.56-8.482-5.98-2.173-23.11-2.625-23.11-2.625-4.97-.196-9.36-.221-13.15-.147m739.56-.13c-3.79-.076-8.18-.054-13.15.142 0 0-17.1.453-23.11 2.626 0 0-11.27 2.565-6.56 8.48 1.45 1.84 8.95.542 11.84.451 11.27-.451 22-2.654 26.68-1.478 0 0 13.59-.362 19.66.997 0 0 12.12 1.176 12.78-2.596 0 0 5.83-7.725-10.78-7.272 0 0-5.98-1.12-17.36-1.35m-660.16-2.367c-1.57.079-2.72.804-2.72.804-4.17 4.918-.24 9.054-.24 9.054 1.33 1.599 4.35 4.677 6.86 6.73a64 64 0 0 0 7.4 5.221c10.93 5.342 12.05.844 12.05.844 2.36-3.198 1.45-5.04-.33-6.549-1.78-1.508-4.47-2.625-4.47-2.625-3.96-2.112-13.32-10.413-13.32-10.413-1.68-2.58-3.67-3.146-5.23-3.066m580.78-.138c-1.58-.084-3.58.474-5.27 3.039 0 0-9.33 8.299-13.32 10.412 0 0-2.69 1.147-4.47 2.625-1.79 1.478-2.69 3.349-.34 6.547 0 0 1.12 4.496 12.06-.814 0 0 3.47-2.023 7.43-5.221 2.5-2.051 5.53-5.13 6.85-6.728 0 0 3.93-4.134-.24-9.053.02 0-1.13-.724-2.7-.807m-500.08-1.752c-1.74-.236-4.53.317-8.86 2.21 0 0-11.48 5.463-22.63 16.479 0 0-4.41 5.16-6.01 8.149 0 0 5.07 7.696 8.85 7.785 0 0 8.58-10.321 17.88-18.379 0 0 9.73-5.251 11.82-7.726 0 0 4.18-7.81-1.05-8.518m419.37-.207c-5.22.705-1.04 8.529-1.04 8.529 2.11 2.476 11.81 7.756 11.81 7.756 9.27 8.056 17.85 18.376 17.85 18.376 3.78-.09 8.85-7.784 8.85-7.784-1.6-2.988-6.01-8.149-6.01-8.149-11.12-11.013-22.6-16.506-22.6-16.506-4.33-1.901-7.12-2.457-8.86-2.222m-484.94-19.237c-1.76.203-3.17.92-3.17.92-10.66 2.717-14.25 6.157-14.25 6.157s-6.14 3.35-8.8 7.817c0 0-2.59 2.957.37 5.041 0-.031 3.41 4.617 7.61-1.812 2.6-2.445 7.67-4.315 7.67-4.315 3.57-1.902 12.21-4.195 12.21-4.195 8.64-2.778 3.71-7.454 3.71-7.454-1.45-2.053-3.58-2.363-5.35-2.159m550.56-.13c-1.77-.204-3.89.105-5.35 2.157 0 0-4.92 4.647 3.72 7.453 0 0 8.61 2.293 12.2 4.195 0 0 5.08 1.871 7.68 4.315 4.16 6.428 7.58 1.81 7.58 1.81 2.96-2.081.36-5.04.36-5.04-2.63-4.465-8.76-7.814-8.76-7.814s-3.62-3.44-14.26-6.155c0 0-1.4-.717-3.17-.921m-632.55-2.21c-1.13.004-2.32.491-3.5 1.782 0 0-.81 2.233-.9 5.251 0 0 .57 6.821-6.86 2.081l-8.16-5.491s-8.7-4.256-9.6 1.751l.36 4.798s-.66 5.765-8.61 1.539l-6.43-4.195s-4.38-5.403-10.55-1.811c0 0-6.07 1.358.61 6.065 0 0 2.11 6.098 12.6 8.632.03-.03 13.35.333 17.61 1.208 0 0 34.13 3.954 42.23 3.168 0 0 5.53.664 8.61-1.78 5.07-3.983.15-6.035-5.8-9.205 0 0-12.02-2.837-15.35-9.477 0 0-2.85-4.329-6.26-4.316m714.51-.13c-3.41-.012-6.26 4.317-6.26 4.317-3.35 6.638-15.35 9.473-15.35 9.473-5.95 3.17-10.87 5.221-5.8 9.205 3.09 2.443 8.61 1.779 8.61 1.779 8.07.786 42.23-3.138 42.23-3.138 4.23-.844 17.58-1.206 17.58-1.206 10.51-2.536 12.63-8.63 12.63-8.63 6.67-4.708.6-6.066.6-6.066-6.13-3.621-10.54 1.781-10.54 1.781l-6.43 4.193c-7.95 4.226-8.61-1.539-8.61-1.539l.36-4.797c-.91-6.004-9.6-1.75-9.6-1.75l-8.16 5.491c-7.43 4.738-6.86-2.081-6.86-2.081-.09-3.018-.9-5.251-.9-5.251-1.17-1.29-2.37-1.777-3.5-1.781m125.75-.398c-3.54.097-7.11 4.443-7.11 4.443-8.85 7.785-16.58 1.961-16.58 1.961-4.65-4.918-7.82-.544-7.82-.544-5.14 5.915-15.05 1.901-15.05 1.901-14.41-1.87-11.17 5.582-11.17 5.582.09 3.381 2.87 3.804 7.16 3.834 4.28.029 10.05-.272 10.05-.272 12.81-1.086 30.69-1.328 30.69-1.328 3.99-.603 10.21-3.802 10.21-3.802 9.67-6.277 3.03-10.139 3.03-10.139-1.05-1.229-2.23-1.669-3.41-1.636m-965.99-.022c-1.18-.032-2.36.407-3.4 1.637 0 0-6.65 3.834 2.99 10.141 0 .031 6.22 3.229 10.21 3.832 0 0 17.88.242 30.69 1.33 0 0 5.77.301 10.06.27s7.07-.422 7.16-3.832c0 0 3.23-7.454-11.18-5.584 0 0-9.94 4.015-15.04-1.931 0 0-3.14-4.376-7.83.542 0 0-7.7 5.826-16.55-1.961 0 0-3.57-4.346-7.11-4.444m278.17-9.287s-6.83.572-16.76 5.582c0 0-11.54 7.998-20.12 17.565 0 0-8.58 10.321-3.39 13.491 0 0 6.71 3.2 13.02-6.429 0 0 3.12-3.712 6.23-6.638 0 0 8.79-8.571 16.94-12.375 0 0 16.86-8.601 4.08-11.196m-112.56-.061a4.013 4.013 0 0 0-4.13 3.902v.021a4.014 4.014 0 0 0 3.89 4.134h.03a4.02 4.02 0 0 0 4.14-3.902v-.021a4.04 4.04 0 0 0-3.93-4.134m634.78-.098a4.02 4.02 0 0 0-3.93 4.104v.029a4.017 4.017 0 0 0 4.11 3.923h.03a4.026 4.026 0 0 0 3.93-4.113v-.021a4.03 4.03 0 0 0-4.12-3.922zm-112.58 0c-12.78 2.595 4.08 11.224 4.08 11.224 8.15 3.803 16.94 12.373 16.94 12.373 3.12 2.896 6.23 6.578 6.23 6.578 6.31 9.655 13.01 6.457 13.01 6.457 5.2-3.168-3.38-13.488-3.38-13.488-8.55-9.595-20.12-17.561-20.12-17.561-9.93-5.01-16.76-5.583-16.76-5.583m-371.51-1.23c-4.99-.453-9.52 5.945-9.52 5.945-9.21 5.796-15.07 26.77-15.07 26.77-5.35 2.113-14.17 20.734-14.17 20.734-4.96 15.724 4.17 13.703 4.17 13.703 5.31-.605 7.1-11.138 7.1-11.138 2.56-11.256 16.46-22.182 16.46-22.182-2.02-8.36 9.79-26.89 9.79-26.89a12 12 0 0 0 2.75-2.838c1.14-1.781-.64-4.013-1.51-4.104m333.45-.219c-.91.091-2.72 2.324-1.54 4.073.57.875 1.45 1.872 2.75 2.837 0 0 11.81 18.558 9.79 26.917 0 0 13.89 10.953 16.46 22.209 0 0 1.78 10.531 7.1 11.135 0 0 9.12 2.02 4.16-13.701 0 0-8.82-18.618-14.13-20.76 0 0-5.86-20.971-15.08-26.765 0 0-4.53-6.398-9.51-5.945m-464.77-4.775c-5.03-.063-7.92 2.126-7.92 2.126-3.05 1.42-6.37 3.351-6.37 3.351-.15 6.035 6.1 7.213 6.1 7.213 7.58-1.298 15.44-3.109 15.44-3.109 5.89-3.109-1.54-8.602-1.54-8.602-2.12-.686-4.04-.958-5.71-.979m596.05-.127c-1.68.021-3.59.293-5.71.98 0 0-7.4 5.491-1.54 8.6 0 0 7.85 1.809 15.43 3.107 0 0 6.26-1.176 6.11-7.211 0 0-3.33-1.931-6.38-3.35 0 0-2.89-2.19-7.91-2.126m-548.69-2.273s-13.62 1.146-21.35 6.971c0 0-10.03 7.274-4.08 11.197 0 0 4.5 1.631 7.64-2.806 0 0 10.67-3.471 17.46-3.29 0 0 7.4 5.221 14.14-1.63 0 0 4.83-11.439-13.81-10.442m501.32-.187c-18.67-1.027-13.83 10.44-13.83 10.44 6.73 6.85 14.14 1.629 14.14 1.629 6.79-.181 17.45 3.32 17.45 3.32 3.18 4.435 7.65 2.806 7.65 2.806 5.95-3.923-4.08-11.225-4.08-11.225-7.7-5.824-21.33-6.97-21.33-6.97m311.78-4.152c-5.95.022-10.13 3.246-10.13 3.246s-6.47 3.682-13.6.362c0 0-4.14-3.923-11.6-.694 0 0-4.98 1.63-4.35 6.668.06 1.148 2.03 2.748 3.63 3.44.96.423 4.89-.392 6.4-.512 4.5-.483 10.21.512 10.21.512 4.62 2.898 13.11.664 13.11.664 6.44-4.707 14.53-2.896 14.53-2.896 5.05.362 7.73-2.475 7.46-3.712-1.15-5.009-9.21-5.793-9.21-5.793a16.7 16.7 0 0 0-6.45-1.285m-1124.87-.085c-1.98-.007-4.16.342-6.44 1.285 0 0-8.07.784-9.22 5.795-.27 1.237 2.42 4.104 7.46 3.712 0 0 8.1-1.781 14.53 2.898 0 0 8.49 2.232 13.12-.664-.03.029 5.65-.936 10.18-.544 1.51.121 5.46.936 6.4.513 1.6-.694 3.56-2.294 3.63-3.411.63-5.01-4.35-6.669-4.35-6.669-7.47-3.23-11.6.693-11.6.693-7.13 3.32-13.6-.361-13.6-.361s-4.16-3.226-10.11-3.247m436.95-9.438c-1.37.293-3.16.93-5.46 2.001 0 0-13.8 7.938-16.58 25.955 0 0-1.12 12.796-10.21 14.065 0 0-21.6 16.025-23.38 26.527 0 0-2.57 10.503 1.2 11.348 1.61.363 6.11-2.112 9.34-10.322 0 0 7.91-13.611 20.18-19.829 0 .031 5.1-2.837 8.7-5.251 2.44-1.629 2.81-6.187 2.26-8.752 0 0 3.45-15 12.72-23.057 0 0 10.83-14.742 1.23-12.685m250.98-.246c-9.6-2.057 1.2 12.683 1.2 12.683 9.27 8.057 12.68 23.054 12.68 23.054-.57 2.534-.18 7.091 2.24 8.75 3.65 2.445 8.76 5.312 8.76 5.312 12.26 6.216 20.18 19.824 20.18 19.824 3.23 8.208 7.73 10.683 9.33 10.32 3.74-.845 1.21-11.345 1.21-11.345-1.78-10.531-23.38-26.554-23.38-26.554-9.1-1.267-10.21-14.062-10.21-14.062-2.75-18.045-16.56-25.981-16.56-25.981-2.29-1.071-4.08-1.708-5.45-2.001m-360.26-.561-6.44.333c-1.87-.061-4.05.906-4.11 2.776-.06 1.872 2.57 3.231 4.44 3.259l4.53-.392c1.91.061 3.33-.664 3.36-2.534.06-1.872.09-3.381-1.78-3.442m469.53-.153c-1.87.03-1.84 1.539-1.78 3.409.06 1.871 1.48 2.596 3.35 2.565l4.54.392c1.87-.061 4.5-1.387 4.44-3.259-.07-1.872-2.24-2.835-4.11-2.776Zm-476-12.13-5.17.363c-1.87-.06-4.31.906-4.35 2.776-.06 1.871 1.82 3.199 3.69 3.26l5.65.391a3.374 3.374 0 0 0 3.47-3.276v-.013a3.397 3.397 0 0 0-3.29-3.501m482.47-.121a3.37 3.37 0 0 0-3.29 3.459v.011a3.366 3.366 0 0 0 3.46 3.288h.01l5.65-.392c1.87-.061 3.74-1.358 3.68-3.229s-2.47-2.837-4.35-2.776Zm-573.4-4.586c9.07.242 27.94.754 27.94.754 11.33.302 11.12 7.848 11.12 7.848-5.32.603-12.08-.333-12.08-.333-19.67.997-26.98-8.269-26.98-8.269m664.32-.122s-7.31 9.265-26.97 8.268c0 0-6.77.936-12.09.332 0 0-.21-7.544 11.12-7.846 0 0 18.88-.512 27.94-.754m-587.35-9.144a3.403 3.403 0 0 0-3.5 3.29 3.41 3.41 0 0 0 3.29 3.501l7.55.211a3.404 3.404 0 0 0 3.51-3.29 3.41 3.41 0 0 0-3.29-3.5Zm510.47-.12-7.55.212a3.366 3.366 0 0 0-3.35 3.385v.085a3.39 3.39 0 0 0 3.48 3.29c0-.002.01-.002.02-.002l7.56-.211a3.416 3.416 0 0 0 3.32-3.469 3.38 3.38 0 0 0-3.46-3.29zm-617.86-10.323c5.98 1.661 45.29 1.239 45.31 1.269 6.83-1.328 10.85 2.443 8.95 4.768 2.08 6.821-6.16 4.346-6.16 4.346-9.07-.242-28.7-.784-28.7-.784-13.6-.394-19.4-9.599-19.4-9.599m725.22-.057s-5.8 9.203-19.39 9.566c0 0-19.64.512-28.7.754 0 0-8.25 2.475-6.16-4.376-1.91-2.324 2.11-6.095 8.94-4.767 0 0 39.3.482 45.31-1.177m-620.85-4.167c-3.14-.091-5.8.362-5.89 3.501s1.51 4.949 4.65 5.04l6.05.15c1.99.544 4.04-.783 4.14-3.923 0 .031-1.3-4.045-4.44-4.134Zm516.45-.118-4.5.633c-3.14.061-4.44 4.135-4.44 4.135.1 3.137 2.15 4.465 4.14 3.923l6.04-.152c3.11-.09 4.75-1.901 4.65-5.038-.09-3.109-2.74-3.562-5.89-3.501m-523.61-15.154c-2.26.136-3.25-.068-3.65 1.261l-.18 1.628-.03-.082v.363l.03-.281 1.34 3.46c.91.797 2.22 1.211 3.79 1.256l5.53.152c3.14.09 4.05-.786 4.14-3.923.03 0-1.27-3.562-4.41-3.653Zm-123.13-.091c10.55 1.058 61.78 4.407 67.94 3.35 3.78-.633 5.71 10.141 1.97 10.625-9.85 1.236-19.64-.545-19.64-.545-15.86-.422-23.41-.633-23.41-.633-22.66-.603-26.86-12.797-26.86-12.797m653.87-.024-6.55.181c-3.08.061-4.41 3.621-4.41 3.621.09 3.139 1 3.984 4.14 3.923l5.53-.15c1.55-.046 2.86-.461 3.78-1.257l1.35-3.453.03.303v-.392l-.03.089-.19-1.592c-.39-1.324-1.38-1.137-3.65-1.273m123.16-.03s-4.2 12.19-26.86 12.795c0 0-7.55.211-23.41.634 0 0-9.79 1.75-19.63.512-3.75-.482-1.81-11.285 1.99-10.621 6.13 1.056 57.36-2.264 67.91-3.32m-661.36-21.192c-5.13-.634-4.53 4.286-4.53 4.286a4.405 4.405 0 0 0 4.41 4.646l8.76 1.631c3.14.061 6.71-.845 6.8-3.984s-1.75-5.221-4.89-5.282Zm545.69-.141-10.54 1.298c-3.11.089-4.95 2.171-4.86 5.279.09 3.138 3.66 4.044 6.77 3.983l8.76-1.629a4.397 4.397 0 0 0 4.41-4.385v-.261s.63-4.919-4.54-4.285m-693.14-4.386c10.49 3.32 42.11 7.183 42.11 7.183 3.57.755 17.47 1.811 25.62 2.203 10.69.514 18.91.422 21.87 1.358 5.26 1.66 4.99 11.469 4.99 11.469-5.26-.906-12.09-.333-12.09-.333-24.95 1.57-49.75-3.62-49.75-3.62-25.53-5.977-32.75-18.26-32.75-18.26m840.61-.051s-7.22 12.282-32.74 18.226c0 0-24.77 5.19-49.75 3.592 0 0-6.83-.575-12.08.331 0 0-.28-9.776 4.98-11.437 2.99-.934 11.18-.814 21.87-1.326 8.16-.394 22.05-1.45 25.62-2.204 0 0 31.62-3.831 42.1-7.182m-697.24-12.142c-3.14-.09-4.8.633-4.89 3.773-.09 3.139 2.54 4.708 5.65 4.798l11.09.302c3.14.09 4.04-.392 4.13-3.531s-2.77-4.981-5.92-5.07Zm553.88-.139-10.06.272c-3.14.091-5.98 1.961-5.92 5.07.09 3.137 1 3.621 4.14 3.53l11.09-.303c3.11-.09 5.74-1.689 5.65-4.797-.09-3.139-1.76-3.862-4.9-3.772m162.39-10.802s-7.97 13.035-22.98 16.445c-7.77 2.625-19.55 4.918-33.08 6.155 0 0-22.56 4.346-41.44 4.104 0 0-4.56-.634-7.55.211 0 0-2.42-6.728 8.79-10.801 0 0 18.03-3.501 33.13-3.893 0 0 12.81-1.087 24.08-3.651 0 0 8.39-1.178 18.79-3.501 6.76-1.539 14.92-4.346 20.26-5.069m-878.67-.014c5.35.724 13.51 3.531 20.27 5.07 10.39 2.384 18.79 3.531 18.79 3.531 11.27 2.565 24.08 3.682 24.08 3.682 15.1.422 33.14 3.923 33.14 3.923 11.2 4.075 8.76 10.805 8.76 10.805-2.99-.845-7.55-.211-7.55-.211-18.91.241-41.45-4.135-41.45-4.135-13.53-1.237-25.32-3.561-33.08-6.187-15.01-3.44-22.96-16.478-22.96-16.478m237.38-4.377c6.76-.181 11.9 5.855 11.9 5.855 4.78 4.798 4.36 9.538 2.66 13.672-2.84 6.912-10.6 12.072-13.92 12.464-3.39.394-10.88 6.579-12.51 8.059-11.48 12.403-11.96 30.512-11.96 30.512-5.11-34.859 10.72-60.843 10.69-60.873 4.45-7.233 9.09-9.58 13.14-9.689m403.94-.158c4.06.113 8.69 2.467 13.13 9.709 0 0 15.8 26.011 10.66 60.862 0 0-.48-18.075-11.93-30.507-1.63-1.478-9.12-7.694-12.5-8.086-3.33-.392-11.09-5.552-13.93-12.463-1.69-4.164-2.11-8.872 2.66-13.668 0 0 5.16-6.035 11.91-5.847m-483.45-3.734c-3.14-.091-6.55.603-6.64 3.712 0 0 .39 3.651 6.43 3.832l13.05 1.358c3.17.061 5.35-.905 5.44-4.014.09-3.138-2.54-4.466-5.68-4.557Zm562.91-.136-12.59.331c-3.08.091-5.71 1.45-5.62 4.557.09 3.139 2.26 4.073 5.38 4.012l13.05-1.356c6.04-.152 6.43-3.832 6.43-3.832-.09-3.109-3.51-3.803-6.65-3.712m-565.51-19.451c-3.14-.092-7.22 1.961-7.31 5.07-.09 3.138 2.03 5.221 5.14 5.31l13.2.484c3.78.483 5.92.03 7.07-4.588.09-3.139-2.78-4.979-5.92-5.07Zm568.14-.103-12.17 1.207c-3.11.06-5.98 1.931-5.89 5.07 1.12 4.616 3.29 5.069 7.04 4.586l13.2-.482c3.14-.091 5.22-2.173 5.13-5.282-.09-3.137-4.2-5.16-7.31-5.099m174.11-1.208s-1.72 6.61-13.98 13.943c-6.74 4.012-18.13 9.444-30.66 11.375 0 0-41.29 9.385-57.91 9.837 0 0-11.24 2.565-11.39-2.716 0 0-3.29-9.716 10.36-7.815 0 0 20.91-3.109 39.88-6.337 13.29-2.293 18.75-4.285 27.76-6.789 0 0 12.14-2.565 21.74-5.824 5.11-1.781 11.36-4.013 14.2-5.674m-916.34-.048c2.84 1.659 9.09 3.923 14.2 5.674 9.61 3.32 21.75 5.885 21.78 5.885 9 2.505 14.47 4.528 27.76 6.79 18.97 3.261 39.88 6.368 39.88 6.368 13.65-1.901 10.36 7.818 10.36 7.818-.15 5.281-11.42 2.715-11.42 2.715-16.61-.453-57.91-9.869-57.91-9.869-12.54-1.962-23.93-7.363-30.66-11.408-12.27-7.363-13.99-13.973-13.99-13.973m331.59-7.286c-3.55.182-5.64 4.086-5.64 4.086-6.16 3.864-.75 9.024-.75 9.024 5.92 4.679 9.61-1.236 9.61-1.236 1.54-.967 3.89-4.045 3.71-6.429-.21-2.384-2.93-4.104-2.93-4.104-1.48-1.049-2.82-1.402-4-1.341m253.19-.204c-1.18-.066-2.52.281-4 1.322 0 0-2.72 1.72-2.9 4.104s2.14 5.463 3.68 6.427c0 0 3.69 5.946 9.61 1.268 0 0 5.41-5.159-.76-9.023 0 0-2.09-3.903-5.63-4.098m344.77-18.33c2.7-.073 2.61 2.05-4.57 9.031 0 0-4.41 4.647-13.41 7.937 0 0-64.34 22.812-85.49 23.385 0 0-4.5 1.63-10.54 1.781 0 0-6.4-13.429 13.23-13.941 0 0 64.68-10.773 84.04-21.848 0 0 12.23-6.223 16.74-6.345m-942.71-.025c4.5.123 16.73 6.348 16.73 6.348 19.33 11.107 84.01 21.912 84.01 21.912 19.63.542 13.23 13.942 13.23 13.942-6.04-.181-10.55-1.81-10.55-1.81-21.14-.574-85.48-23.451-85.48-23.451-8.98-3.259-13.39-7.907-13.39-7.907-7.17-6.983-7.25-9.107-4.55-9.034m350.66-12.227c-4.94-.561-8.22 5.296-8.22 5.296l-2.57 1.931c-2-.542-4.5-1.628-4.5-1.628-8.04-.725-8.61 1.779-8.61 1.779-6.8 8.874 4.65 14.216 4.65 14.216 4.92 3.651 14.53 2.897 14.53 2.897 4.59-2.385 8.28-7.817 8.28-7.817 6.28-8.872 1.87-13.52 1.87-13.52-1.95-2.068-3.79-2.968-5.43-3.154m241.4-.217c-1.65.187-3.48 1.086-5.43 3.153 0 0-4.41 4.648 1.87 13.549 0 0 3.66 5.432 8.28 7.816 0 0 9.57.754 14.53-2.897 0 0 11.44-5.341 4.65-14.213 0 0-.58-2.504-8.61-1.78 0 0-2.48 1.087-4.5 1.629l-2.57-1.961s-3.28-5.856-8.22-5.296M1036.88 7.222c2.72.638 6.45 2.622 6.45 2.622 5.19 3.923 14.16 7.184 14.16 7.184 27.43 19.616 102.68 30.723 102.68 30.723 50.39 8.933 96.67 1.117 96.67 1.117 18.25-4.045 27.94.754 27.94.754 15.71 5.703 20.91 18.561 17.25 32.926-2.65 10.321-7.46 23.963-7.46 23.963-9.91 31.419-4.83 66.277-4.83 66.277 2.35 24.204 26.46 27.132 26.46 27.132 12.02 1.84 28.73-.725 28.73-.725 12.05 1.087 28.03-3.017 28.03-3.017 9.25-6.55-3.5-9.899-3.5-9.899-9.12 2.021-2.93-3.864-2.93-3.864 6.92-4.346 10.93-13.279 10.93-13.279 3.12-3.683-1.36-5.311-1.36-5.311-9-2.506-2.68-12.164-2.68-12.164 2.41-5.976-2.03-8.36-2.03-8.36-2.99-.845-8.28-.966-8.28-.966 3.09-2.173 10.91-12.525 10.91-12.525 3.93-5.944.18-6.79.18-6.79-10.45-4.043 1.21-16.568 1.21-16.568 2.48-7.485-.42-12.103-.42-12.103-3.69-3.108-4.17-13.702-4.17-13.702-1.36-5.312-5.95-3.923-5.95-3.923l-3.11 2.928c-3.12 2.926-4.9 12.705-4.9 12.705-.63-4.558-8.31-9.024-8.31-9.024-8.79-6.307-3.17-10.412-3.83-16.208-.61-5.31 1.81-10.532 1.81-10.532 2.27 9.628 16.92 17.052 16.92 17.052l4.53-.392c1.06-1.72 2.96-2.384 5.16-4.889 2.21-2.506 4.72-6.912 4.72-6.912 3.11-3.44 2.75-8.994 2.75-8.994-9.94-5.312-9.73-12.856-9.73-12.856-.51-17.625 20.96-11.016 20.96-11.016 4.2-5.915 19.52-11.196 22.57 4.135 2.21 11.136-5.77 17.203-5.77 17.203-3.23 7.454 12.96 13.701 12.96 13.701 6.98 3.2 10.03 1.268 10.03 1.268l7.04.181-2.03 9.749c-1.6 2.987-.06 11.317-.06 11.317-.93 6.76 8.46 13.069 8.46 13.069 11.66-11.772 18.13-9.327 18.13-9.327-3.81.664-6.01 8.149-6.01 8.149-3.87 3.682-.34 12.072-.34 12.072 1.18 12.102-11.48 4.979-11.48 4.979-2.23-.814-6.79-.181-6.79-.181-7.56-.211-12.87 1.147-12.87 1.147l11.66-11.769c3.11-3.683-.55-8.331-.55-8.331-2.2-2.323-2.62-13.912-2.62-13.912.15-5.282-4.35-6.671-4.35-6.671-3.72-2.353-6.56-.18-6.56-.18-3.02.422-1.72 7.515-1.72 7.515 5.59 6.941.63 14.094.63 14.094-2.59 2.443-4.77 1.418-6.04.09-1.21-1.298-.63-4.043-.63-4.043 2.17-6.218.57-12.314.57-12.314-3.41-4.618-8.06-.211-8.06-.211-2.09 2.957-5.65 4.376-5.65 4.376-7.28 7.846-.06 20.643-.06 20.643 1.42 3.562 9.27 11.317 9.27 11.317 6.92 4.709-.66 6.006-.66 6.006-8.1 1.781-.25 9.054-.25 9.054 2.96 2.082 13.81 11.439 13.81 11.439-11.09.694-9.24 6.79-9.24 6.79.75 1.207 2.41 5.735 5.8 8.722 5.28 4.617 12.86 7.907 12.86 7.907l-7.12 2.837c-3.33.997-5.11 3.773-3.24 7.454 4.99 9.81 25.98 25.866 25.98 25.866l-15.1-.423c-2.6 2.445-.82 11.559-.82 11.559 2.45 2.595 3.78 9.174 3.78 9.174s22.93 45.906-5.89 68.269c0 0-6.1 1.84-9.25 6.79 0 0-2.23 4.104-5.28 8.903-4.9 7.756-13.84 18.048-33.84 21.217 0 0-14.92 2.143-30.3 3.199-9.06.635-23.2 1.388-23.2 1.388s-7.34.634-13.14 1.661c-8.3 1.448-16.52 4.346-21.51 12.495 0 0-8.27 7.816-.45 16.086 0 0 12.96 5.371 4.68 13.218 0 0-11.23 5.734-15.98-5.463 0 0-7.67-14.305 8.28-26.437 0 0 11.84-9.235 20.96-12.012 0 0 12.36-9.719-2.77-9.144 0 0-37.4 5.009-67.1-14.909 0 0-4.14-4.89-13.05-1.359 0 0-16.25 4.829-26.91 26.437 0 0-4.44 5.917-8.49 15.634 0 0-3.3-17.443 21.63-44.696 0 0 1.54-1.48 3.92-5.192 0 0 4.75-7.424-3.62-6.127 0 0-11.45 4.226-22.17 9.96 0 0-3.87 2.928-6.89 3.592 0 0-3.17 5.191-9.09.512l-4.45-3.892s-5.13-5.432 2.54-9.749c0 0 3.11-2.926 6.95-5.099 0 0 6.19-5.101.91-6.007 0 0-2.45-1.63-5.23-2.414-8.43-2.384-27.07-5.251-51.51 4.648 0 0-19.03 5.009-35.85 31.718 0 0-14.29 24.779-16.68 38.783 0 0-1.54-36.277 18.88-64.405 0 0 1.57-2.475 3.69-5.946 0 0 4.98-6.096 1.69-7.182-2.45-1.419-3.11-.152-6.56.995 0 0-2.41 1.901-4.11 3.411-5.1 4.496-14.28 11.951-25.97 10.864 0 0-11.06-.814-15.29-11.981 0 0-2.05 1.962-9.09.754 0 0-5.5 16.962 10.57 18.411 0 0 8.01 2.232 15.07 1.418 0 0 11.18-3.712 5.87 7.213 0 0 .72 10.08-13.3 7.696 0 0-8.06-.212-15.01-3.44 0 0-15.95-6.459-21.3 5.462 0 0-1.24 8.029-3.44 15 0 0 1.33 25.2-3.11 40.169 0 0-6.29 8.874-11.39 10.775 0 0-4.47 15.965-.76 27.163 0 0-1.14 5.01 1.79 9.114 0 0 6.76 10.26-.58 21.126 0 0-4.41 13.973 3.51 19.226 0 0 10.75 12.372-1.7 25.108 0 0-10.27 7.788-1.48 17.084 0 0 2.09 5.824 3.81 8.148 5.2 6.972 11.57 19.436-.76 27.16 0 0-3.17 4.95-6.19 5.86 0 0-7.25 6.85-1.48 17.05 0 0 8.82 9.29 1.42 22.18 0 0-2.41 15.03 2.48 20.19 0 0 5.01 6.52 7.73 12.28 5.71 12.23 6.95 12.77-.63 23.12 0 0-5.35 10.93.45 20.13 0 0 10.66 15.39-.63 23.12 0 0-4.26 8.94-.43 15.09 0 0 13.81 10.44 6.32 27.34 0 0-2.51 18.05 3.44 21.22 0 0 15.5 22.58 40.03 10.14 0 0 15.31-7.63 7.76-25.95 0 0-6.64-15.27-15.89-8.48 0 0 1.6 15.15-6.46 14.91 0 0-13.84-9.45.54-20.1 0 0 6.1-4.62 10.67-3.75 6.07 1.18 9.57 4.41 12.86 7.91 3.27 3.44 5.38 6.52 7.65 15.3 0 0 3.68 13.19-8.67 22.91-5.62 4.41-10.82 9.26-27.83 4.77 0 0-13.95-5.4-23.8-13.73 0 0-1.72-1.82-4.35-2.63s-5.71 1.84-9.79 3.26c0 0-6.1 1.84-1.21 7 0 0 5.26 10.2.37 24.17 0 0-1.51 18.6 1.96 20.68 0 0 4.11 15.45 16.34 10.5 0 0 4.56-.63 4.71-6.67 0 0 1.18-1.84-2.5-4.98 0 0-2.78-2.84-1-4.56.54-.96 2.06-.96 3.78.49 0 0 10.33 9.32-.55 19.62 0 0-9.24 6.54-18.76-4.29 0 0-9.63-7.06-9.15-24.42 0 0 .15-5.04 1.06-11.28 0 0 3.98-8.18-1.72-19.68 0 0-5.32-7.94-10.24-12.1 0 0-9.01-2.27-8.68-14.34 0 0-10.78-10.35-4.41-23.27 0 0 1.12-3.98.28-10.05 0 0-4.69-3.65-.52-18.14 0 0 3.05-1.17-1.75-9.11 0 0-7.58-8.27.3-20.13 0 0 4.75-8.18.43-15.09 0 0-10.46-4.05-3.15-23.48 0 0 3.3-9.72.43-15.09 0 0-11.15-6.34-.94-21.16-1.42-3.32-.12-13.85-.12-13.85 1.12-3.98.15-5.52.15-5.52-5.35-7.19-.97-19.65-.97-19.65.25-8.543-6.94-4.226-6.94-4.226.39 4.046-5.23 6.906-5.23 6.906 1.81 7.61-6.01 17.45-6.01 17.45-4.26 8.45-.06 20.64-.06 20.64 9.69 13.85-3.72 25.05-3.72 25.05-5.25 7.91 3.02 18.2 3.02 18.2 8.82 9.3 1.54 17.14 1.54 17.14-3.11 3.68-.93 6.76-.93 6.76 8.06 8.51.27 18.11.27 18.11-3.11 2.93-.21 8.3-.21 8.3 12.41 16.18-1.57 29.4-1.57 29.4-1.97 2.59.54 4.83 2.02 8.36 1.51 3.53 2.02 8.36 2.02 8.36 9.64 7.06 3.3 18.2 3.3 18.2-2.48 7.48 1.14 12.85 1.14 12.85 8.89 7.03 1.03 18.14 1.03 18.14-3.14 4.44 1.27 9.09 1.27 9.09 7.25 11.52 5.32 26.55 5.32 26.55 6.76.94 6.64 5.47 6.64 5.47 27.65 11.31 32.66 49.19 32.66 49.19 2.42 15.12 8.97 23.03 13.59 26.83 2.78 2.29 10 5.16 12 4.95 4.8-.51 7.43-4.71 7.43-4.71 5.25-8.42-4.2-12.19-4.2-12.19-2.99-.85-4.65 0-5.56 1.06-1.09 3.16-2.54 3.32-3.11 3.56-4.2 1.72-4.41-4.47-4.41-4.47.69-7.52 6.43-9.51 6.43-9.51 9.82-1.87 15.59 4.08 17.89 9.18 1.36 2.99.96 6.06.96 6.06-.54 19.62-17.13 19.17-17.13 19.17-26.34-3.74-28.84-22.94-33.62-41.68-1.45-5.67-1.18-12.1-1.18-12.1-1.02-18.14-12.89-25.26-12.89-25.26-8.79-10.29-17.13-8.79-17.13-8.79-9.13 1.75-3.81 10.48-3.81 10.48 3.81 8.14 17.76 13.55 17.76 13.55-10.72 23.87-31.41 7.18-31.41 7.18 6.67-4.35 7.88-12.37 7.88-12.37 4.29-9.96-3.2-11.65-3.2-11.65-8.46-4.26-13.23 5.16-13.23 5.16-3.18 5.94-1.91 10.8-.79 17.08.39 2.26 2.18 4.19 2.69 6.13.63 2.35 1.24 4.72 1.81 7.09 4.5 19.74-8.18 23.69-8.18 23.69-21.36 6.97-25.44-8.99-25.44-8.99-4.86-16 1.06-20.1 1.06-20.1 12.32-8.73 6.67 13.28 6.67 13.28-2.26 8.99 5.74 11.22 5.74 11.22 9.01 2.27 10.21-4.74 10.21-4.74 8.25-6.82-.45-20.13-.45-20.13-7.7-13.27 1.03-37.21 1.03-37.21-8.91-5.28-9.58-17.86-9.58-17.86-2.96-2.09-5.4-5.2-5.4-5.2-15.32-10.98-3.84-25.26-3.84-25.26 3.71-6.94-.73-10.08-.73-10.08-5.98-2.68-6.91-5.22-6.91-5.22-6.53-4.74-8.37-11.83-7.07-17.29 1.81-7.79 8.42-13.85 8.42-13.85 2.75-7.97-.15-13.1-.15-13.1-18.27-13.07-1.96-38.81-1.96-38.81-1.84-6.58.51-37.22.51-37.22 1.82-10.53-7.37-6.24-7.37-6.24-3.62 2.08-10.9 8.93-16.01 14.66-4.29 4.83-6.79 8.88-6.79 8.88-12.06 16.78 3.38 23.24 3.38 23.24 7.04.18 3.87 5.64 3.87 5.64-2.6 2.96-8.07.27-8.07.27-12.99-3.38-13.68-15.48-13.68-15.48 0-18.11 14.25-28.61 24.46-38.33 4.38-4.17 8.55-8.81 8.55-8.81-3.32-16.69 10.45-32.18 10.45-32.18 3.15-3.95 3.21-6.94 3.21-6.94-2.69-12.16 7.7-23.93 7.7-23.93 4.23-6.94 4.32-10.956 4.32-10.956-6.52-19.284 4.8-28.036 4.8-28.036 6.23-6.882 1.39-14.548 1.39-14.548-6.82-7.726-2.02-17.656-2.02-17.656 4.14-6.187 2.39-11.86.45-16.086-1.02-2.203-2.38-5.101-2.38-5.101-8.31-8.782-.82-25.683-.82-25.683 3.78-8.963 2.02-9.265.3-11.075-1.48-1.539-6.55-.183-6.55-.183-7.59 1.3-6.38 12.405-6.38 12.405 2.81 8.119-2.44 16.026-2.44 16.026-3.21 6.971.6 15.12.6 15.12 11.69 14.397 1.27 27.193 1.27 27.193-1.15 5.01-.18 7.032-.18 7.032 4.71 12.192-3.63 22.031-3.63 22.031-5.19 5.886-1.57 21.097-1.57 21.097-.84 12.55-9.03 16.87-9.03 16.87-8.31 8.84-6.68 23.48-6.68 23.48.64 14.09-5.4 22.88-5.4 22.88-15.35 22.21-33.75 3.98-33.75 3.98-6.64-5.46-5.25-11.8-4.47-15.6 1.75-8.63 10.82-9.15 10.82-9.15 6.82-.93 7.67 3.66 7.03 5.47-.51 4.52-4.74 3.65-4.74 3.65-4.98-1.66-7.13 2.83-7.13 2.83-1.9 14.55 12.72 13.95 12.72 13.95 12.57.33 14.29-7.16 14.29-7.16 5.2-5.4 4.68-23.51 4.68-23.51.85-13.06 2.75-16.14 5.59-19.97.94-1.27 2.66-4.96 2.66-4.96 3.69-5.43 1.54-20.064 1.54-20.064-1.36-6.067-7.46-3.23-7.46-3.23-8.34 10.354-21.87 7.968-21.87 7.968-25.56-4.707-17.4-26.891-17.4-26.891 11.72-14.034 19.69-2.474 19.69-2.474-13.08-.605-15.37 9.386-15.37 9.386-.49 18.109 19.99 14.878 19.99 14.878 9.91-2.746 7.65-6.579 10.1-10.291 1.78-2.715 3.86-3.682 3.86-3.682-8.16-5.493-3.2-21.216-3.2-21.216.15-5.281-2.66-12.918-2.66-12.918-2.69-12.162-12.6-8.632-12.6-8.632-5.28-.15-11.35 1.208-11.35 1.208 21.65-19.043 20.54-32.656 20.54-32.656 5.47-15.451.27-28.67.27-28.67-3.9-4.648-5.86-6.188-5.86-6.188-8.31-9.777-.91-22.665-.91-22.665 1.12-3.501.21-8.058.21-8.058.7-25.654 10.4-29.908 10.4-29.908 4.95-2.476 6.07 3.379 7.31 8.752 1.42 6.217.57 15.905.42 21.156-.15 6.036-.24 9.055-.24 9.055 5.34 6.699-.18 25.653-.18 25.653 5.8 9.204-.13 22.635-.13 22.635-.54 3.651-1.29 7.363-1.35 12.555-.06 6.187.63 13.611.63 13.611 1.9 4.074 2.39 23.208 2.39 23.208-.33 12.073 4.74 11.197 4.74 11.197 7.04.182 7.22-5.855 7.22-5.855 3.14-4.948-.42-21.156-.42-21.156-3.93-3.621-2.69-9.778-1.6-15.151.57-2.897.15-6.035.15-6.035-3.81-8.149 1.54-19.075 1.54-19.075 2.14-4.979.24-9.053.24-9.053-3.05-5.222-1.09-10.293.42-15.091.85-2.715 1.21-7.002 1.21-7.002a302 302 0 0 0-3.69-13.188l1.42-15.06c2.24-7.998-.66-13.099-.66-13.099-5.56-17.262 3.59-21.035 3.59-21.035 6.23-6.882 6.98 2.203 6.98 2.203 5.8 9.205-.24 27.162-.24 27.162-2.2 6.489 1.6 14.638 1.6 14.638 3.39 5.13 3.11 14.667 3.11 14.667 1.27 8.602 6.47 2.687 6.47 2.687 6.74-7.365 1.45-16.57 1.45-16.57-4.89-5.674-3.51-19.707-3.51-19.707 3.18-5.946 1.97-16.539 1.97-16.539-2.69-12.163 7.61-15.634 7.61-15.634 6.1-1.72 10.42-8.027 10.42-8.027 1.6-2.989 3.17-5.946 3.17-5.946.46-3.019 12.87-14.366 12.87-14.366 4.69-5.523.25-8.662.25-8.662-4.75-5.794-12.87.393-12.87.393-4.63 3.652-12.33 9.083-12.33 9.083-3.9 4.799-22.41 19.015-22.41 19.015C876.45 339.896 860.86 344 860.86 344c-24.5 11.408-42.32.725-42.32.725-15.61-9.477-5.04-22.786-5.04-22.786 5.74-2.867 6.01 1.298 6.01 1.298-2.33 2.203-3.17 5.19-3.17 5.19-2.24 12.405 15.16 11.741 15.16 11.741 11.36-.453 18.31-6.67 18.31-6.67 7.25-3.2 20.78-13.762 20.78-13.762 27.1-24.176 49-37.152 49-37.152 17.7-12.344 38.64-17.444 38.64-17.444 6.07-.604 8.7.18 8.12 1.87-.33 3.261-4.17 4.92-4.17 4.92-2.56 1.448-4.1 3.409-4.1 3.409-2.24 7.999 7.43 4.226 7.43 4.226 5.04-.362 7.61-2.323 7.61-2.323 7.7-5.312 8.25-7.334 8.25-7.334 5.74-6.881-3.72-11.167-3.72-11.167-4.53-.12-5.98-2.686-5.98-2.686-2.96-2.596-8.55-.725-8.55-.725-2.05 1.963-5.59 2.355-5.59 2.355-7.19 4.829-10-2.778-10-2.778 1.21-7.513 9.34-9.808 9.34-9.808 8.18-4.798 22.66.122 22.66.122 1.96 2.051 7.03.693 7.03.693 2.3-3.259 12.33-2.474 22.21-1.901 8.09.453 16.61.453 16.61.453 3.54-.422 1.69-6.49 1.69-6.49-3.5-.603-3.95-3.137-3.95-3.137-4.48-2.626-9.07-.242-9.07-.242-8.18 4.799-13.56-1.389-13.56-1.389-4.95-2.656-10.06-.272-10.06-.272-8.22 5.826-17.58-1.478-17.58-1.478-3.02-1.448-5.8-1.026-5.8-1.026-3.84 2.927-11.39 1.962-11.39 1.962-1.57 2.234-4.62 2.898-4.62 2.898-1.66 6.004-11.6 9.505-11.6 9.505-5.41 4.376-6.32 9.629-6.32 9.629-.27 9.597-5.58 11.317-10.18 13.309-3.71 1.6-6.88 2.836-6.88 2.836l-4.66 4.407c-4.1 11.952-10 6.518-10 6.518-5.04-8.449 5.8-18.71 5.8-18.71 1.61-3.742 3.96-6.701 3.96-6.701 1.81-10.533 13.23-13.973 13.23-13.973 4.63-2.897 7.01-8.118 7.01-8.118 7.71-5.826 3.26-8.965 3.26-8.965-4.34-6.157-9.06-.241-9.06-.241-2.38 4.467-7.76 8.089-7.76 8.089-5.5 8.149-11.6 9.506-11.6 9.506-3.84 2.174-5.47 6.64-5.47 6.64-2.66 14.275-7.16 13.4-7.16 13.4-7.01 8.118-3.68 24.808-3.68 24.808.39 4.92-.64 8.059-2.27 9.99-4.2 4.949-7.94 3.32-7.94 3.32-9.1.514-9.61-7.817-9.61-7.817-33.35 4.377-39.88-6.369-39.88-6.369 40.97-5.673 45.71-13.852 45.71-13.852 2.69-1.81 2.72-6.066 4.05-10.442 1.36-4.406 4.01-8.933 4.01-8.933-3.02-.091-5.95-3.169-5.95-3.169-12.71-4.135-23.08-12.706-23.08-12.706-33.26-23.601-31.99-42.433-31.99-42.433 16.68 26.105 63.96 37.966 63.96 37.966 9.78 1.781 13.56 1.6 17.37-.272 3.83-1.87 4.65-4.406 4.65-4.406 4.74-5.704 9.45-8.3 13.11-10.2q2.7-1.406 5.37-2.868c.1-3.019 3.9-4.436 3.9-4.436-11.12-7.847-24.14-29.336-24.14-29.336-23.89-37.634-14.98-60.029-14.98-60.029.09 8.693 9.97 31.448 22.9 47.414 6.77 8.391 14.71 17.443 21.27 23.208 10.24 9.024 17.79 12.555 17.79 12.555 6.74 2.445 12.93-2.656 12.93-2.656 10.03-7.273 19.57 2.053 19.57 2.053 3.72 2.354 10.55 1.811 10.55 1.811 5.28.151 6.1-2.113 6.1-2.113 8.4-2.776 1.06-11.287 1.06-11.287-3.72-2.355-5.83-7.696-5.83-7.696-15.99-23.088-.34-43.792-.34-43.792 12.51-15.513 22.15-8.451 22.15-8.451-19.85 7.002-16.62 27.464-16.62 27.464 2.27 10.594 8.07 21.851 13.6 27.556 7.55 7.785 14.89 7.967 14.89 7.967 12.87-.393 20.21 6.58 20.21 6.58 4.44 3.892 16.55 2.715 16.55 2.715 5.8-.573 11 4.075 17.16 8.029 6.74 4.284 14.14 7.937 14.14 7.937 10.45 4.799 18.82 2.023 18.82 2.023 6.86-2.084-2.09-6.852-2.09-6.852-5.25-.905-8.24-2.475-8.24-2.475-20.21-6.579-45.22-32.173-45.22-32.173-14.05-11.708-9.16-24.416-9.16-24.416 3.57-19.526 23.87-15.964 23.87-15.964 10.96 3.139 13.74 9.929 15.43 16.267 3.42 12.917-10.42 22.363-10.42 22.363 6.5 11.499 19.85 20.162 19.85 20.162 20.66 17.926 47.91 15.632 47.91 15.632 4.62-2.896-7.98-12.284-7.98-12.284-9.63-6.307-17.7-15.572-17.7-15.572-27.76-34.707-18.67-35.975-18.67-35.975 24.62 39.175 78.67 51.97 78.67 51.97 39.06 8.601 66.61-4.979 66.61-4.979 4.38-3.229-1.12-3.863-1.12-3.863-7.04-.694-8.49-3.261-8.49-3.261-12.87-7.907 4.74-7.424 4.74-7.424 8.13-2.292 7.65-3.561 7.65-3.561 5.4-4.376-3.63-5.371-3.63-5.371-5.29.361-10.57-.303-10.57-.303-6.83.575-9.03-1.75-9.03-1.75-6.62-6.216 3.17-5.946 3.17-5.946 3.77.091 8.33-1.267 8.33-1.267 5.32-.603 3.93-5.19 3.93-5.19.82-2.234-8.21-3.231-8.21-3.231-3.78-.089-9.82-.27-9.82-.27-6.32 1.086-10.73-3.562-10.73-3.562-.36-5.553 7.92-4.075 7.92-4.075 4.53.122 9.85-.483 9.85-.483 6.82-.573 4.68-5.16 4.68-5.16-.61-5.312-8.19-4.738-8.19-4.738-7.58.543-17.37-.483-17.37-.483-11.96-4.859.15-5.281.15-5.281 6.04.15 15.11-.333 15.11-.333 6.8.18 3.86-3.682 3.86-3.682.16-5.281-7.43-4.737-7.43-4.737l-10.57-.303c-14.35-.392-14.2-5.673-14.2-5.673-3.62-6.127 12.93-2.656 12.93-2.656 6.8.18 12.15-1.932 12.15-1.932 6.25-7.364-5.08-7.696-5.08-7.696-6.07.604-11.33-.302-11.33-.302-13.89 1.147-16.73-4.979-16.73-4.979-5.11-6.187 5.65-4.378 5.65-4.378l18.12.483c6.04.152 4.68-5.16 4.68-5.16.12-4.528-8.18-3.984-8.18-3.984-5.26-.905-11.3-1.056-11.3-1.056-12.06-1.086-17.52-4.256-17.52-4.256-10.3-10.08 6.43-5.1 6.43-5.1 10.48 3.289 21.12 1.328 21.12 1.328 10.57.302 6.95-5.855 6.95-5.855.15-6.036-8.19-4.739-8.19-4.739l-15.11-.422c-15.13 1.086-27.64-11.317-27.64-11.317-5.1-6.942-6.07.603-6.07.603-.88 4.498-4.62 3.651-4.62 3.651-10.54-1.056-42.08-8.691-42.08-8.691-69.06-14.728-79.75-39.174-79.75-39.174-4-5.388-2.28-6.097.44-5.459m974.27-.062c2.72-.637 4.44.072.44 5.458 0 0-10.69 24.442-79.8 39.107 0 0-31.54 7.636-42.08 8.661 0 0-3.75.845-4.62-3.651 0 0-.97-7.514-6.07-.603 0 0-12.51 12.401-27.64 11.285 0 0-7.56.211-15.11.392 0 0-8.33-1.298-8.18 4.737 0 0-3.63 6.127 6.95 5.855 0 0 10.63 1.992 21.11-1.328 0 0 16.73-4.979 6.43 5.099 0 0-5.46 3.169-17.52 4.225 0 0-6.04.151-11.29 1.056 0 0-8.34-.544-8.22 3.983 0 0-1.36 5.312 4.68 5.16l18.13-.482s10.78-1.781 5.65 4.374c0 0-2.88 6.127-16.74 4.98 0 0-5.25.905-11.33.302 0 0-11.33.301-5.07 7.695 0 0 5.35 2.111 12.14 1.931 0 0 16.52-3.471 12.93 2.685 0 0 .15 5.281-14.2 5.673 0 0-5.28.151-10.57.272 0 0-7.58-.544-7.43 4.738 0 0-2.93 3.862 3.87 3.68 0 0 9.09.513 15.13.363 0 0 12.08.422.15 5.28 0 0-9.79 1.025-17.37.453 0 0-7.58-.543-8.18 4.737 0 0-2.15 4.588 4.65 5.16 0 0 5.31.604 9.84.483 0 0 8.28-1.478 7.92 4.074 0 0-4.41 4.647-10.72 3.56 0 0-6.04.15-9.82.272 0 0-9.03.995-8.22 3.229 0 0-1.39 4.557 3.93 5.19 0 0 4.56 1.387 8.34 1.298 0 0 9.81-.272 3.17 5.944 0 0-2.21 2.323-9.03 1.75 0 0-5.26.634-10.58.272 0 0-9.03.995-3.62 5.371 0 0-.48 1.268 7.64 3.56 0 0 17.61-.452 4.74 7.424 0 0-1.45 2.565-8.48 3.228.24.152-5.29.816-.94 3.984 0 0 27.55 13.609 66.61 5.009 0 0 54.04-12.765 78.68-51.902 0 0 9.1 1.267-18.69 35.969 0 0-8.07 9.264-17.71 15.57 0 0-12.59 9.386-7.97 12.282 0 0 27.25 2.294 47.94-15.6 0 0 13.38-8.661 19.84-20.157 0 0-13.83-9.447-10.42-22.36 1.69-6.338 4.47-13.127 15.44-16.266 0 0 20.3-3.56 23.83 15.964 0 0 4.86 12.704-9.18 24.382 0 0-25.01 25.558-45.22 32.136 0 0-2.99 1.6-8.25 2.475 0 0-8.94 4.766-2.08 6.85 0 0 8.4 2.806 18.85-2.023 0 0 7.4-3.621 14.13-7.905 6.16-3.924 11.39-8.57 17.16-7.997 0 0 12.11 1.177 16.55-2.715 0 0 7.37-7.002 20.21-6.58 0 0 7.34-.18 14.89-7.936 5.53-5.672 11.36-16.958 13.63-27.519 0 0 3.23-20.458-16.59-27.49 0 0 9.64-7.03 22.15 8.48 0 0 15.64 20.699-.34 43.784 0 0-2.11 5.341-5.83 7.694 0 0-7.34 8.511 1.06 11.287 0 0 .81 2.232 6.1 2.112 0 0 6.83.572 10.54-1.781 0 0 9.58-9.323 19.58-2.021 0 0 6.19 5.13 12.93 2.685 0 0 7.54-3.531 17.79-12.554 6.56-5.763 14.5-14.816 21.29-23.204 12.93-15.962 22.84-38.714 22.92-47.405 0 0 8.92 22.42-15 60.019 0 0-13.03 21.485-24.17 29.329 0 0 3.81 1.42 3.91 4.437 0 0 2.38 1.327 5.36 2.866 3.66 1.901 8.37 4.526 13.11 10.23 0 0 .82 2.534 4.66 4.405 3.84 1.87 7.6 2.053 17.4.302 0 0 47.27-11.828 63.94-37.931 0 0 1.27 18.831-32.11 42.367 0 0-10.36 8.569-23.07 12.673 0 0-2.93 3.109-5.96 3.168 0 0 2.66 4.557 4.02 8.963 1.33 4.405 1.36 8.629 4.05 10.471 0 0 4.74 8.177 45.71 13.88 0 0-6.54 10.742-39.88 6.337 0 0-.55 8.328-9.61 7.815 0 0-3.74 1.6-7.94-3.349-1.63-1.901-2.62-5.069-2.24-9.989 0 0 3.33-16.686-3.68-24.803 0 0-4.5.875-7.16-13.398 0 0-1.63-4.497-5.47-6.639 0 0-6.07-1.357-11.56-9.505 0 0-5.38-3.621-7.77-8.087 0 0-4.69-5.913-9.06.242 0 0-4.45 3.137 3.27 8.961 0 0 2.4 5.221 7 8.119 0 0 11.41 3.469 13.2 13.969 0 0 2.36 2.959 3.96 6.699 0 0 10.84 10.29 5.76 18.709 0 0-5.89 5.432-9.99-6.518 0 0-2.32-2.202-4.66-4.405 0 0-3.17-1.237-6.88-2.837-4.6-1.992-9.91-3.712-10.18-13.307 0 0-.9-5.25-6.31-9.656 0 0-9.91-3.501-11.57-9.506 0 0-3.05-.663-4.62-2.896 0 0-7.53.965-11.39-1.961 0 0-2.78-.422-5.77 1.147 0 0-9.4 7.303-17.58 1.479 0 0-5.11-2.385-10.06.27 0 0-5.38 6.187-13.56 1.358 0 0-4.59-2.384-9.07.242 0 0-.42 2.534-3.95 3.138 0 0-1.84 6.096 1.69 6.487 0 0 8.52 0 16.61-.452 9.91-.543 19.91-1.327 22.2 1.931 0 0 5.08 1.389 7.04-.693 0 0 14.47-4.92 22.66-.091 0 0 8.12 2.293 9.33 9.806 0 0-2.81 7.605-10 2.776 0 0-3.53-.392-5.59-2.353 0 0-5.58-1.871-8.54.724 0 0-1.45 2.565-5.99 2.685 0 0-9.45 4.287-3.74 11.167 0 0 .57 1.99 8.25 7.331 0 0 2.56 1.961 7.61 2.325 0 0 9.66 3.771 7.43-4.226 0 0-1.57-1.962-4.11-3.41 0 0-3.84-1.659-4.17-4.918-.54-1.69 2.09-2.445 8.13-1.84 0 0 20.9 5.099 38.59 17.47 0 0 21.89 13.007 48.98 37.176 0 0 13.49 10.592 20.74 13.791 0 0 6.98 6.216 18.32 6.669 0 0 17.4.664 15.16-11.738 0 0-.85-2.987-3.17-5.19 0 0 .27-4.165 6-1.298 0 0 10.55 13.307-5.04 22.782 0 0-17.85 10.651-42.31-.755 0 0-15.6-4.104-39.27-27.64 0 0-18.53-14.212-22.42-19.04 0 0-7.7-5.462-12.32-9.113 0 0-8.1-6.216-12.84-.423 0 0-4.44 3.138.24 8.661 0 0 12.39 11.376 12.84 14.363 0 0 1.6 2.987 3.17 5.944 0 0 4.32 6.307 10.42 8.027 0 0 10.31 3.501 7.59 15.631 0 0-1.25 10.592 1.92 16.536 0 0 1.39 14.062-3.49 19.704 0 0-5.3 9.204 1.44 16.566 0 0 5.2 5.915 6.47-2.685 0 0-.24-9.566 3.13-14.665 0 0 3.81-8.147 1.64-14.636 0 0-6.01-17.953-.21-27.156 0 0 .75-9.084 6.98-2.203 0 0 9.14 3.771 3.59 21.032 0 0-2.9 5.099-.66 13.096l1.41 15.057s-1.84 6.096-3.68 13.186c0 0 .36 4.286 1.21 7.001 1.48 4.799 3.48 9.867.39 15.088 0 0-1.91 4.074.24 9.053 0 0 5.31 10.923 1.52 19.07 0 0-.43 3.138.14 6.036 1.06 5.34 2.32 11.496-1.63 15.147 0 0-3.59 16.205-.45 21.153 0 0 .14 6.035 7.19 5.853 0 0 5.07.875 4.74-11.193 0 0 .48-19.132 2.41-23.205 0 0 .71-7.394.64-13.61-.03-5.16-.78-8.902-1.32-12.554 0 0-5.9-13.427-.1-22.63 0 0-5.52-18.981-.18-25.649 0 0-.09-3.018-.24-9.053-.16-5.25-1-14.936.45-21.152 1.23-5.371 2.39-11.226 7.32-8.752 0 0 9.65 4.256 10.36 29.904 0 0-.88 4.557.2 8.058 0 0 7.4 12.884-.91 22.66 0 0-1.95 1.57-5.89 6.186 0 0-5.19 13.217.27 28.667 0 0-1.13 13.61 20.53 32.649 0 0-6.09-1.358-11.37-1.206 0 0-9.91-3.501-12.63 8.631 0 0-2.8 7.633-2.67 12.884 0 0 4.94 15.72-3.21 21.213 0 0 2.08.965 3.86 3.682 2.45 3.71.21 7.544 10.09 10.289 0 0 20.49 3.229 19.99-14.876 0 0-2.25-9.989-15.37-9.415 0 0 8.01-11.528 19.69 2.504 0 0 8.17 22.179-17.43 26.886 0 0-13.53 2.355-21.87-7.966 0 0-6.13-2.866-7.46 3.229 0 0-2.14 14.632 1.56 20.072 0 0 1.71 3.68 2.65 4.94 2.8 3.81 4.71 6.91 5.56 19.98 0 0-.51 18.13 4.64 23.51 0 0 1.73 7.51 14.3 7.18 0 0 14.61.63 12.71-13.91 0 0-2.15-4.47-7.13-2.84 0 0-4.25.88-4.73-3.65-.65-1.84.2-6.43 7.02-5.46 0 0 9.1.51 10.83 9.14.75 3.8 2.14 10.14-4.5 15.6 0 0-18.4 18.23-33.75-4.01 0 0-6-8.75-5.41-22.88 0 0 1.63-14.63-6.68-23.47 0 0-8.18-4.32-8.99-16.87 0 0 3.61-15.177-1.57-21.092 0 0-8.31-9.837-3.61-22.027 0 0 .98-2.053-.17-7.032 0 0-10.42-12.794 1.3-27.218 0 0 3.81-8.147.6-15.118 0 0-5.25-7.906-2.45-16.023 0 0 1.22-11.104-6.37-12.401 0 0-5.07-1.389-6.54.181-1.73 1.809-3.48 2.112.28 11.073 0 0 7.5 16.899-.81 25.68 0 0-1.35 2.896-2.39 5.1-1.95 4.223-3.71 9.897.43 16.083 0 0 4.81 9.928-2.05 17.652 0 0-4.83 7.664 1.38 14.544 0 0 11.34 8.752 4.77 28.034 0 0 .13 4.014 4.32 10.954 0 0 10.39 11.8 7.7 23.96 0 0 .1 3.02 3.21 6.97 0 0 13.75 15.48 10.42 32.17 0 0 4.18 4.64 8.55 8.84 10.18 9.71 24.48 20.21 24.44 38.35 0 0-.7 12.1-13.68 15.45 0 0-5.46 2.65-8.07-.3 0 0-3.17-5.46 3.87-5.65 0 0 15.43-6.45 3.41-23.23 0 0-2.48-4.04-6.8-8.87-5.09-5.74-12.38-12.59-16.01-14.67 0 0-9.17-4.28-7.4 6.22 0 0 2.32 30.63.48 37.21 0 0 16.28 25.73-1.98 38.8 0 0-2.9 5.1-.16 13.1 0 0 6.62 6.09 8.43 13.88 1.27 5.46-.57 12.55-7.1 17.29 0 0-.93 2.53-6.92 5.22 0 0-4.43 3.14-.75 10.08 0 0 11.44 14.3-3.86 25.25 0 0-2.42 3.08-5.41 5.16 0 0-.67 12.59-9.61 17.87 0 0 8.7 23.93 1 37.2 0 0-8.7 13.31-.48 20.13 0 0 1.2 7 10.21 4.77 0 0 8-2.23 5.73-11.23 0 0-5.62-22 6.71-13.24 0 0 5.89 4.1 1.02 20.09 0 0-4.1 15.97-25.42 8.96 0 0-12.69-3.95-8.2-23.68 0 0 .68-2.78 1.81-7.09.52-1.94 2.31-3.87 2.69-6.13 1.12-6.25 2.39-11.11-.78-17.08 0 0-4.77-9.41-13.23-5.19 0 0-7.52 1.72-3.2 11.65 0 0 1.21 8.03 7.88 12.37 0 0-20.72 16.66-31.41-7.21 0 0 13.95-5.4 17.76-13.55 0 0 5.32-8.69-3.81-10.47 0 0-8.33-1.54-17.12 8.75 0 0-11.9 7.12-12.93 25.26 0 0 .27 6.42-1.18 12.1-4.8 18.74-7.31 37.93-33.65 41.64 0 0-16.61.45-17.13-19.16 0 0-.39-3.08.97-6.07 2.3-5.07 8.06-11.04 17.88-9.14 0 0 5.71 1.99 6.44 9.5 0 0-.21 6.16-4.41 4.44-.61-.24-2.03-.39-3.12-3.56-.9-1.06-2.56-1.87-5.55-1.06 0 0-9.46 3.78-4.2 12.19 0 0 2.6 4.2 7.4 4.71 1.99.21 9.21-2.62 11.99-4.92 4.62-3.8 11.18-11.71 13.59-26.79 0 0 5.05-37.87 32.69-49.19 0 0-.12-4.52 6.64-5.46 0 0-1.9-15.03 5.35-26.55 0 0 4.41-4.65 1.27-9.09 0 0-7.86-11.1 1.02-18.13 0 0 3.63-5.37 1.18-12.86 0 0-6.34-11.16 3.29-18.19 0 0 .55-4.83 2.06-8.36 1.5-3.53 3.99-5.76 2.05-8.36 0 0-13.95-13.22-1.54-29.39 0 0 2.87-5.37-.21-8.3 0 0-7.82-9.59.28-18.1 0 0 2.17-3.08-.94-6.76 0 0-7.25-7.85 1.56-17.14 0 0 8.28-10.29 3.06-18.2 0 0-13.38-11.22-3.68-25.04 0 0 4.19-12.19-.07-20.64 0 0-7.82-9.87-6.01-17.45 0 0-5.62-2.86-5.22-6.905 0 0-7.16-4.345-6.95 4.195 0 0 4.35 12.46-1 19.64 0 0-.96 1.54.15 5.53 0 0 1.3 10.53-.12 13.85 10.21 14.81-.93 21.15-.93 21.15-2.87 5.37.39 15.09.39 15.09 7.31 19.43-3.14 23.47-3.14 23.47-4.35 6.91.39 15.09.39 15.09 7.85 11.86.27 20.13.27 20.13-4.83 7.9-1.78 9.11-1.78 9.11 4.17 14.48-.51 18.14-.51 18.14-.85 6.06.27 10.04.27 10.04 6.37 12.92-4.41 23.27-4.41 23.27.33 12.07-8.7 14.3-8.7 14.3-4.93 4.17-10.24 12.1-10.24 12.1-5.74 11.47-1.75 19.68-1.75 19.68q.81 5.61 1.05 11.28c.46 17.35-9.18 24.38-9.18 24.38-9.54 10.84-18.76 4.29-18.76 4.29-10.84-10.29-.51-19.61-.51-19.61 1.69-1.45 3.23-1.45 3.77-.49 1.79 1.72-1.02 4.56-1.02 4.56-3.69 3.11-2.51 4.98-2.51 4.98.15 6.03 4.71 6.67 4.71 6.67 12.24 4.94 16.34-10.51 16.34-10.51 3.48-2.11 1.97-20.66 1.97-20.66-4.9-13.95.36-24.18.36-24.18 4.89-5.16-1.18-7-1.18-7-4.08-1.38-7.16-4.07-9.79-3.25-1.63.53-3.12 1.42-4.34 2.62-9.85 8.3-23.81 13.7-23.81 13.7-17 4.47-22.23-.36-27.82-4.8-12.35-9.74-8.67-22.9-8.67-22.9 2.27-8.78 4.38-11.86 7.64-15.3 3.33-3.47 6.83-6.7 12.9-7.88 4.56-.87 10.67 3.75 10.67 3.75 14.37 10.68.54 20.12.54 20.12-8.04.21-6.43-14.9-6.43-14.9-9.25-6.79-15.89 8.47-15.89 8.47-7.59 18.32 7.73 25.96 7.73 25.96 24.5 12.43 40.02-10.11 40.02-10.11 5.96-3.17 3.48-21.22 3.48-21.22-7.49-16.89 6.31-27.33 6.31-27.33 3.87-6.13-.39-15.09-.39-15.09-11.3-7.76-.61-23.12-.61-23.12 5.8-9.2.46-20.15.46-20.15-7.59-10.35-6.35-10.9-.61-23.12 2.69-5.76 7.74-12.28 7.74-12.28 4.89-5.16 2.47-20.19 2.47-20.19-7.4-12.88 1.42-22.18 1.42-22.18 5.77-10.19-1.45-17.04-1.45-17.04-3.05-.94-6.19-5.89-6.19-5.89-12.29-7.723-5.92-20.185-.72-27.156 1.72-2.324 3.8-8.148 3.8-8.148 8.82-9.293-1.45-17.078-1.45-17.078-12.41-12.765-1.66-25.106-1.66-25.106 7.91-5.251 3.5-19.222 3.5-19.222-7.34-10.862-.57-21.123-.57-21.123 2.9-4.102 1.78-9.112 1.78-9.112 3.75-11.165-.72-27.158-.72-27.158-5.08-1.871-11.36-10.773-11.36-10.773-4.41-14.967-3.08-40.163-3.08-40.163-2.21-6.97-3.41-14.997-3.41-14.997-5.35-11.919-21.3-5.463-21.3-5.463-6.98 3.2-15.01 3.412-15.01 3.412-14.05 2.384-13.29-7.695-13.29-7.695-5.32-10.925 5.86-7.213 5.86-7.213 7.07.815 15.07-1.417 15.07-1.417 16.07-1.419 10.6-18.408 10.6-18.408-7.04 1.208-9.09-.754-9.09-.754-4.23 11.165-15.28 11.979-15.28 11.979-11.69 1.056-20.88-6.396-25.98-10.892-1.69-1.509-4.11-3.41-4.11-3.41-3.44-1.178-4.11-2.414-6.56-.997-3.29 1.087 1.7 7.183 1.7 7.183 1.21 1.992 2.44 3.972 3.68 5.944 20.39 28.123 18.82 64.393 18.82 64.393-2.39-14.03-16.64-38.805-16.64-38.805-16.83-26.736-35.86-31.743-35.86-31.743-24.44-9.929-43.07-7.061-51.5-4.677-2.78.784-5.23 2.413-5.23 2.413-5.25.905.91 6.004.91 6.004 3.84 2.173 6.95 5.101 6.95 5.101 7.67 4.315 2.53 9.746 2.53 9.746l-4.44 3.892c-5.92 4.677-9.09-.512-9.09-.512-3.05-.664-6.89-3.592-6.89-3.592-10.72-5.763-22.17-9.987-22.17-9.987-8.33-1.297-3.62 6.125-3.62 6.125 2.35 3.712 3.93 5.191 3.93 5.191 24.89 27.247 21.59 44.719 21.59 44.719-4.05-9.716-8.46-15.63-8.46-15.63-10.66-21.606-26.88-26.464-26.88-26.464-8.91-3.531-13.05 1.358-13.05 1.358-29.69 19.916-67.09 14.847-67.09 14.847-15.13-.605-2.78 9.142-2.78 9.142 9.16 2.776 20.97 12.01 20.97 12.01 15.95 12.16 8.24 26.433 8.24 26.433-4.74 11.196-15.97 5.463-15.97 5.463-8.28-7.816 4.68-13.218 4.68-13.218 7.85-8.267-.43-16.083-.43-16.083-4.95-8.178-13.17-11.045-21.47-12.523-5.8-1.026-13.14-1.659-13.14-1.659s-14.14-.756-23.2-1.389c-15.38-1.087-30.3-3.229-30.3-3.229-19.96-3.199-28.91-13.488-33.8-21.243a205 205 0 0 1-5.29-8.901c-3.14-4.949-9.24-6.79-9.24-6.79-28.79-22.389-5.86-68.256-5.86-68.256s1.33-6.578 3.78-9.143c0 0 1.78-9.113-.82-11.558l-15.1.394s21.02-16.024 26.01-25.861c1.87-3.682.12-6.458-3.24-7.453l-7.12-2.837s7.58-3.259 12.86-7.877c3.39-2.956 5.05-7.513 5.8-8.689 0 0 1.84-6.096-9.24-6.79 0 0 10.84-9.354 13.8-11.436 0 0 7.86-7.241-.24-9.052 0 0-7.58-1.298-.66-6.036 0 0 7.85-7.755 9.27-11.315 0 0 7.22-12.765-.06-20.609 0 0-3.56-1.42-5.65-4.376 0 0-4.65-4.407-8.06.211 0 0-1.6 6.065.57 12.312 0 0 .57 2.745-.63 4.043-1.27 1.328-3.48 2.353-6.04-.091 0 0-4.99-7.152.63-14.091 0 0 1.33-7.092-1.72-7.514 0 0-2.84-2.173-6.56.181 0 0-4.5 1.387-4.35 6.669 0 0-.45 11.587-2.66 13.91 0 0-3.65 4.618-.54 8.328l11.66 11.769s-5.32-1.358-12.87-1.177c0 0-4.56-.634-6.79.181 0 0-12.66 7.121-11.48-4.978 0 0 3.56-8.39-.3-12.07 0 0-2.21-7.485-6.02-8.147 0 0 6.47-2.445 18.13 9.323 0 0 9.39-6.277 8.46-13.066 0 0 1.54-8.328-.06-11.315l-2.03-9.747 7.04-.181s3.08 1.931 10.03-1.267c0 0 16.19-6.216 12.99-13.671 0 0-7.98-6.064-5.74-17.2 3.05-15.328 18.36-10.048 22.56-4.132 0 0 21.48-6.608 20.94 11.013 0 0 .21 7.544-9.73 12.825 0 0-.36 5.552 2.75 8.992 0 0 2.51 4.405 4.71 6.91 2.2 2.535 4.11 3.168 5.16 4.888l4.54.392s14.65-7.422 16.91-17.048c0 0 2.42 5.22 1.78 10.53-.66 5.794 4.93 9.898-3.83 16.205 0 0-7.7 4.465-8.34 9.022 0 0-1.78-9.776-4.86-12.704l-3.11-2.926s-4.56-1.389-5.95 3.923c0 0-.49 10.59-4.17 13.699 0 0-2.9 4.616-.43 12.099 0 0 11.66 12.523 1.21 16.567 0 0-3.74.845.18 6.79 0 0 7.83 10.35 10.91 12.552 0 0-5.29.152-8.28.966 0 0-4.47 2.384-2.05 8.359 0 0 6.31 9.656-2.69 12.129 0 0-4.5 1.631-1.36 5.312 0 0 4.02 8.962 10.93 13.308 0 0 6.2 5.883-2.93 3.862 0 0-12.74 3.349-3.5 9.898 0 0 15.98 4.104 28.03 3.017 0 0 16.68 2.565 28.73.754 0 0 24.1-2.896 26.46-27.128 0 0 5.11-34.851-4.77-66.295 0 0-4.8-13.609-7.43-23.958-3.66-14.365 1.54-27.219 17.24-32.921 0 0 9.7-4.799 27.94-.755 0 0 46.28 7.816 96.67-1.057 0 0 75.24-11.043 102.67-30.657 0 0 8.97-3.259 14.17-7.182 0 0 3.72-1.984 6.44-2.622M1929.51.102c.81-.198 1.71-.126 2.67.417V.518s.78 1.48-2.11 5.342c0 0 .69 16.325-31.21 29.269 0 0-7.97 3.228-26.07 4.707 0 0 37.46-20.608 45.28-29.872l7.4-6.246s1.62-3.022 4.04-3.616M1118.8.101c2.42.594 4.03 3.617 4.03 3.617l7.38 6.246c7.82 9.265 45.28 29.91 45.28 29.91-18.1-1.51-26.07-4.739-26.07-4.739-31.87-12.947-31.18-29.275-31.18-29.275v.002c-2.93-3.864-2.14-5.344-2.11-5.344.96-.544 1.86-.615 2.67-.417M1708.49 1185.37c-8.34 0-15.6 2.95-21.76 8.84s-9.24 13.01-9.24 21.37q0 12.54 9.24 21.51c6.16 5.99 13.42 8.98 21.76 8.98s15.54-2.99 21.61-8.98c6.07-5.98 9.1-13.15 9.1-21.51s-3.03-15.48-9.1-21.37-13.27-8.84-21.61-8.84m290.86-9.11c-8.91 0-16.58 3.23-23.03 9.68-6.45 6.46-9.67 14.16-9.67 23.09 0 8.92 3.22 16.52 9.67 22.79s14.12 9.41 23.03 9.41 16.64-3.14 23.18-9.41 9.81-13.87 9.81-22.79c0-8.93-3.27-16.63-9.81-23.09-6.54-6.45-14.27-9.68-23.18-9.68m224.36-5.7h31.28v56.99h176.59v27.92h-207.87Zm-515.22-10.83c8.72 0 16.82 1.47 24.31 4.42 7.49 2.94 14.17 6.98 20.05 12.11 5.5 5.32 9.81 11.3 12.94 17.95 3.12 6.65 4.69 13.87 4.69 21.65 0 7.6-1.57 14.77-4.69 21.52-3.13 6.74-7.44 12.68-12.94 17.81-5.88 5.13-12.56 9.21-20.05 12.25s-15.59 4.56-24.31 4.56c-8.53 0-16.59-1.52-24.17-4.56-7.59-3.04-14.22-7.12-19.91-12.25s-10.09-11.07-13.22-17.81c-3.13-6.75-4.69-13.92-4.69-21.52 0-7.78 1.56-15 4.69-21.65s7.53-12.63 13.22-17.95c5.69-5.13 12.32-9.17 19.91-12.11 7.58-2.95 15.64-4.42 24.17-4.42m291.15-10.26c8.72 0 16.87 1.62 24.45 4.84 7.59 3.23 14.32 7.51 20.19 12.83 5.5 5.32 9.96 11.63 13.37 18.95 3.41 7.31 5.12 15.05 5.12 23.22s-1.71 15.82-5.12 22.94-7.87 13.34-13.37 18.66q-8.805 8.265-20.19 13.11c-7.58 3.23-15.73 4.85-24.45 4.85s-16.92-1.62-24.6-4.85-14.45-7.6-20.33-13.11c-5.5-5.32-9.95-11.54-13.37-18.66-3.41-7.12-5.11-14.77-5.11-22.94s1.7-15.91 5.11-23.22c3.42-7.32 7.87-13.63 13.37-18.95 5.88-5.32 12.65-9.6 20.33-12.83 7.68-3.22 15.88-4.84 24.6-4.84M871.63 1029.51h28.44v198.61H866.8v-157.3l-36.11 27.64-18.2-23.93Zm-175.02-3.42c19.34 0 35.31 6.22 47.92 18.66 12.6 12.44 18.91 27.12 18.91 44.03 0 9.49-2.47 19.09-7.4 28.78-4.93 9.68-12.41 19.18-22.46 28.49l-57.44 54.14h89v27.93h-134.5v-26.22l72.23-67.82c18.2-17.09 27.3-31.91 27.3-44.45 0-9.88-3.18-18.24-9.53-25.08-6.35-6.83-15.12-10.25-26.3-10.25-8.15 0-15.74 3.32-22.75 9.97-5.69 5.13-9.48 13.39-11.38 24.79-.38 2.66-.76 5.41-1.13 8.26l-30.72-7.69c.57-18.24 7.02-33.39 19.34-45.45s28.63-18.09 48.91-18.09m1775.6-3.99h128.81v205.16h-31.56v-176.67h-97.25Zm-1141.89 0h106.64v27.92h-75.08v147.89h78.2v27.64h-109.76Zm-351.06 0h106.64v27.92h-75.07v147.89h78.2v27.64H979.26Zm-622.71 0h123.98v27.92h-51.18l56.87 170.12-26.73 7.98-40.1-122.25-39.81 124.24-27.58-7.98 57.16-172.11h-52.61Zm1511.43-8.27h133.93v77.8h-102.65v26.21h105.5v25.36h-136.78v-77.51h102.94v-25.07h-102.94Zm-257.31-4.84h195.35v25.64h-164.07v13.4h162.94v24.79h-162.94v14.25h164.93v25.07h-82.75v16.24h100.95v25.93H1591.9v-25.93h100.66v-16.24h-81.89Zm-1106.25-2.28h29.57v252.47h-29.57v-131.37h-32.7v-28.49h32.7Zm2160.02-.29H2696v254.18h-31.56v-125.38h-41.52v-28.21h41.52Zm-266.7 0h31.56v162.71h-31.56v-79.5h-47.77v-27.92h47.77Zm-348.34 0h31.57v140.77h-31.57v-34.76H2013v-25.93h36.4v-23.94H2013v-26.22h36.4Zm-526.85 0h30.14v254.18h-30.14v-122.53h-33.84v121.11h-29.57v-252.47h29.57V1111h33.84Zm-351.06 0h30.14v254.18h-30.14v-122.53h-33.84v121.11h-29.57v-252.47h29.57V1111h33.84Zm-615.03 0h30.14v254.18h-30.14Zm1726.68-1.42 79.91 129.65-25.6 15.96-54.31-91.18-54.03 93.17-26.16-15.95ZM0 1489.19h140.827v16.66H79.859v36.06H60.796v-36.06H0Zm1081.29-1.55h18.89v34.35h106.65v16.83h-125.54Zm-526.93-3.95c3.55 0 6.61 1.26 9.19 3.78 2.57 2.52 3.86 5.55 3.86 9.1 0 3.44-1.29 6.41-3.86 8.93-2.58 2.52-5.64 3.78-9.19 3.78s-6.61-1.26-9.19-3.78c-2.57-2.52-3.86-5.49-3.86-8.93 0-3.55 1.29-6.58 3.86-9.1 2.58-2.52 5.64-3.78 9.19-3.78m845.19-2.23h121.59v35.89h-102.7v6.53h104.59v15.45h-123.48v-36.58h102.7v-6.35h-102.7Zm-1186.78-3.09v35.38h35.035v-35.38Zm1509.79-9.79h120.39v41.9h-101.33v12.88h103.05v15.46h-122.11v-42.59h101.33v-12.71h-101.33Zm-1388.9 0h120.39v41.9H352.72v12.88h103.05v15.46H333.66v-42.59h101.32v-12.71H333.66Zm2035.78-8.93c-3.2 0-6.27.63-9.19 1.89a23 23 0 0 0-7.64 5.32q-3.09 3.27-5.07 7.56c-1.31 2.86-1.97 5.95-1.97 9.27 0 3.21.66 6.24 1.97 9.1a30.6 30.6 0 0 0 5.07 7.73c2.18 2.18 4.72 3.89 7.64 5.15s5.99 1.89 9.19 1.89c3.32 0 6.41-.63 9.28-1.89 2.86-1.26 5.43-2.97 7.72-5.15a30.6 30.6 0 0 0 5.07-7.73c1.32-2.86 1.98-5.89 1.98-9.1q0-4.98-1.98-9.27t-5.07-7.56c-2.29-2.29-4.86-4.06-7.72-5.32-2.87-1.26-5.96-1.89-9.28-1.89m-1043.17 0c-3.21 0-6.27.63-9.19 1.89a23.1 23.1 0 0 0-7.65 5.32c-2.06 2.18-3.74 4.7-5.06 7.56q-1.98 4.29-1.98 9.27c0 3.21.66 6.24 1.98 9.1 1.32 2.87 3 5.44 5.06 7.73 2.18 2.18 4.73 3.89 7.65 5.15s5.98 1.89 9.19 1.89q4.98 0 9.27-1.89a26.8 26.8 0 0 0 7.73-5.15c2.06-2.29 3.75-4.86 5.06-7.73 1.32-2.86 1.98-5.89 1.98-9.1q0-4.98-1.98-9.27c-1.31-2.86-3-5.38-5.06-7.56-2.29-2.29-4.87-4.06-7.73-5.32q-4.29-1.89-9.27-1.89m61.95-8.76h101.84v15.63h-44.14v10.3h-18.89v-10.3h-38.81Zm1231.9-4.81c6.18 0 12.88 2.01 20.09 6.02 5.27 2.86 10.13 4.29 14.6 4.29 6.18 0 11.68-3.38 16.49-10.13l11.5 11.85c-8.58 10.53-17.46 15.79-26.62 15.79-6.52 0-13.74-2.11-21.63-6.35-5.16-2.86-9.91-4.29-14.26-4.29-4.69 0-10.3 3.2-16.83 9.61l-11.51-11.84c10.08-9.97 19.47-14.95 28.17-14.95m-634.25-7.04c-5.27 0-9.73 1.81-13.4 5.41-3.66 3.61-5.49 7.93-5.49 12.97q0 7.56 5.49 13.05c3.67 3.66 8.13 5.5 13.4 5.5s9.73-1.84 13.4-5.5q5.49-5.49 5.49-13.05c0-5.04-1.83-9.36-5.49-12.97-3.67-3.6-8.13-5.41-13.4-5.41m0-15.97c5.15 0 10.02.86 14.6 2.58q6.87 2.58 11.85 7.38c3.43 3.21 6.12 6.9 8.07 11.08s2.92 8.61 2.92 13.31c0 4.69-.97 9.16-2.92 13.39a35.45 35.45 0 0 1-8.07 11.17q-4.98 4.635-11.85 7.38c-1.61.57-3.32 1.09-5.15 1.55v19.4h40.18v16.66h-99.43v-16.66h40.35v-19.4c-1.94-.46-3.66-.98-5.15-1.55-4.58-1.83-8.59-4.29-12.02-7.38-3.43-3.21-6.1-6.93-7.99-11.17-1.88-4.23-2.83-8.7-2.83-13.39 0-4.7.95-9.13 2.83-13.31 1.89-4.18 4.56-7.87 7.99-11.08 3.43-3.2 7.44-5.66 12.02-7.38s9.45-2.58 14.6-2.58m865.02-5.66c-8.01 0-14.08 3.83-18.2 11.5-4.13 7.67-6.19 18.89-6.19 33.66 0 14.65 2.06 25.82 6.19 33.49 4.12 7.67 10.19 11.5 18.2 11.5 8.13 0 14.25-3.83 18.38-11.5 4.12-7.67 6.18-18.84 6.18-33.49q0-22.155-6.18-33.66c-4.13-7.67-10.25-11.5-18.38-11.5m-587.54 0c-8.01 0-14.08 3.83-18.2 11.5q-6.18 11.505-6.18 33.66c0 14.65 2.06 25.82 6.18 33.49s10.19 11.5 18.2 11.5c8.13 0 14.26-3.83 18.38-11.5s6.18-18.84 6.18-33.49q0-22.155-6.18-33.66c-4.12-7.67-10.25-11.5-18.38-11.5m-1466.84 0c-8.01 0-14.08 3.83-18.2 11.5s-6.19 18.89-6.19 33.66c0 14.65 2.07 25.82 6.19 33.49s10.19 11.5 18.2 11.5c8.13 0 14.26-3.83 18.38-11.5s6.18-18.84 6.18-33.49q0-22.155-6.18-33.66c-4.12-7.67-10.25-11.5-18.38-11.5m-242.15-1.72c3.55 0 6.61 1.26 9.19 3.78 2.57 2.52 3.86 5.49 3.86 8.93 0 3.55-1.29 6.58-3.86 9.1-2.58 2.52-5.64 3.78-9.19 3.78s-6.61-1.26-9.19-3.78c-2.57-2.52-3.86-5.55-3.86-9.1 0-3.44 1.29-6.41 3.86-8.93 2.58-2.52 5.64-3.78 9.19-3.78m-346.227-2.41v48.6h44.309v-48.6Zm1543.107-7.72c-5.72 0-10.67 2-14.85 6.01-4.18 4-6.27 8.81-6.27 14.42q0 8.415 6.27 14.43c4.18 4 9.13 6.01 14.85 6.01 5.73 0 10.68-2.01 14.86-6.01q6.27-6.015 6.27-14.43c0-5.61-2.09-10.42-6.27-14.42-4.18-4.01-9.13-6.01-14.86-6.01m-1388.9 0c-5.73 0-10.68 2-14.86 6.01-4.18 4-6.26 8.81-6.26 14.42s2.08 10.42 6.26 14.43c4.18 4 9.13 6.01 14.86 6.01 5.72 0 10.68-2.01 14.85-6.01q6.27-6.015 6.27-14.43c0-5.61-2.09-10.42-6.27-14.42-4.17-4.01-9.13-6.01-14.85-6.01m1997.48-2.92h21.47l-20.26 42.07c2.63-.92 5.43-1.49 8.41-1.72 12.25 0 22.79 4.01 31.6 12.02 8.25 7.79 12.37 17.41 12.37 28.85 0 11.34-4.12 20.9-12.37 28.68-8.7 7.9-19.23 11.85-31.6 11.85-12.13 0-22.61-3.95-31.43-11.85-8.35-7.9-12.53-17.46-12.53-28.68 0-5.72 1.6-12.02 4.81-18.89Zm-750.39 0h72.13v14.59l-27.82 29.2q4.47 0 11.16 2.49c4.47 1.66 8.71 4.26 12.71 7.81 3.9 3.67 6.96 7.87 9.19 12.62s3.35 9.82 3.35 15.2c0 11.11-4.12 20.49-12.37 28.17q-13.05 11.67-31.77 11.67c-5.72 0-11.1-.88-16.14-2.66-5.04-1.77-9.45-4.21-13.22-7.3-3.78-2.97-6.9-6.52-9.36-10.64-2.47-4.13-4.04-7.96-4.73-11.51l17.52-8.76c.92 3.78 2.09 7.04 3.52 9.79s3.35 5.27 5.75 7.56c4.58 4.58 10.14 6.86 16.66 6.86 6.76 0 12.43-2.28 17.01-6.86q6.69-7.05 6.69-16.83c0-3.21-.6-6.24-1.8-9.1q-1.8-4.305-4.89-7.56c-2.18-2.18-4.73-3.86-7.65-5.07q-4.38-1.8-9.36-1.8c-5.38 0-10.82 1.09-16.31 3.26l-8.42-7.55 35.21-36.92h-47.06Zm-292.78 0h21.47l-20.27 42.07c2.63-.92 5.44-1.49 8.42-1.72 12.25 0 22.78 4.01 31.6 12.02 8.24 7.79 12.36 17.41 12.36 28.85q0 17.01-12.36 28.68c-8.71 7.9-19.24 11.85-31.6 11.85-12.14 0-22.62-3.95-31.43-11.85q-12.54-11.85-12.54-28.68c0-5.72 1.6-12.02 4.81-18.89Zm-334.75 0h63.37v16.66h-47.74l-6.02 28.16q8.25-5.67 19.41-5.67 17.52 0 29.37 11.85 12.36 12.54 12.36 29.19c0 11.22-4.23 21.01-12.71 29.37-8.58 8.13-19.52 12.19-32.8 12.19-5.95 0-11.45-.94-16.48-2.83-5.04-1.89-9.51-4.44-13.4-7.64-5.5-4.47-9.85-10.36-13.05-17.69l17.69-9.1c1.71 5.15 4.46 9.67 8.24 13.56 4.81 4.7 10.48 7.04 17 7.04 7.22-.11 13.11-2.51 17.69-7.21 4.92-5.15 7.39-11.22 7.39-18.2 0-6.87-2.35-12.77-7.04-17.69-4.47-4.58-10.48-6.87-18.04-6.87-7.33 0-14.94 4.24-22.84 12.71l-15.8-7.21Zm1868.99-2.06q21.465 0 32.97 16.05c7.67 10.71 11.51 26.02 11.51 45.94s-3.84 35.2-11.51 45.85-18.66 15.97-32.97 15.97-25.3-5.32-32.97-15.97c-7.68-10.65-11.51-25.93-11.51-45.85s3.83-35.23 11.51-45.94q11.505-16.05 32.97-16.05m-106.26 0c11.68 0 21.32 3.75 28.94 11.25 7.61 7.49 11.42 16.34 11.42 26.53q0 8.58-4.47 17.34c-2.97 5.84-7.5 11.56-13.56 17.17l-34.7 32.63h53.76v16.83h-81.23v-15.8l43.62-40.87c10.99-10.3 16.49-19.23 16.49-26.79 0-5.95-1.92-10.99-5.76-15.11-3.83-4.12-9.13-6.18-15.88-6.18-4.93 0-9.51 2-13.74 6.01q-5.16 4.635-6.87 14.94-.345 2.4-.69 4.98l-18.55-4.64c.35-10.99 4.24-20.12 11.68-27.39s17.29-10.9 29.54-10.9m-481.28 0c14.32 0 25.31 5.35 32.98 16.05 7.67 10.71 11.5 26.02 11.5 45.94s-3.83 35.2-11.5 45.85-18.66 15.97-32.98 15.97c-14.31 0-25.3-5.32-32.97-15.97s-11.51-25.93-11.51-45.85 3.84-35.23 11.51-45.94q11.505-16.05 32.97-16.05m-1361.27 0c11.68 0 21.33 3.75 28.94 11.25 7.62 7.49 11.42 16.34 11.42 26.53 0 5.72-1.48 11.5-4.46 17.34s-7.5 11.56-13.57 17.17l-34.69 32.63h53.75v16.83h-81.23v-15.8l43.62-40.87c10.99-10.3 16.49-19.23 16.49-26.79 0-5.95-1.92-10.99-5.75-15.11-3.84-4.12-9.13-6.18-15.89-6.18-4.92 0-9.5 2-13.74 6.01q-5.145 4.635-6.87 14.94c-.23 1.6-.46 3.26-.68 4.98l-18.55-4.64c.34-10.99 4.23-20.12 11.68-27.39 7.44-7.27 17.28-10.9 29.53-10.9m-105.57 0c14.31 0 25.3 5.35 32.98 16.05 7.67 10.71 11.5 26.02 11.5 45.94s-3.83 35.2-11.5 45.85c-7.68 10.65-18.67 15.97-32.98 15.97s-25.3-5.32-32.97-15.97-11.51-25.93-11.51-45.85 3.84-35.23 11.51-45.94q11.505-16.05 32.97-16.05m-106.26 0c11.68 0 21.33 3.75 28.94 11.25 7.61 7.49 11.42 16.34 11.42 26.53 0 5.72-1.49 11.5-4.46 17.34-2.98 5.84-7.5 11.56-13.57 17.17l-34.69 32.63h53.75v16.83h-81.23v-15.8l43.62-40.87c10.99-10.3 16.49-19.23 16.49-26.79 0-5.95-1.92-10.99-5.76-15.11-3.83-4.12-9.13-6.18-15.88-6.18-4.93 0-9.5 2-13.74 6.01q-5.16 4.635-6.87 14.94-.345 2.4-.69 4.98l-18.55-4.64c.35-10.99 4.24-20.12 11.68-27.39s17.29-10.9 29.54-10.9m746.91-.35c-4.58 0-8.5 1.52-11.76 4.55-3.26 3.04-4.9 6.84-4.9 11.42s1.64 8.39 4.9 11.42c3.26 3.04 7.18 4.55 11.76 4.55s8.5-1.51 11.77-4.55c3.26-3.03 4.89-6.84 4.89-11.42s-1.63-8.38-4.89-11.42c-3.27-3.03-7.19-4.55-11.77-4.55m-1267.669-3.6h121.592v16.65h-20.265v48.6h20.265v16.49h-24.387v35.38H300.7v16.82H159.874v-16.82h34.004v-35.38h-24.387v-16.49h20.094v-48.6h-20.094Zm-158.156-3.78H129.32v16.49H30.226v15.28h98.407v16.14H30.226v15.8h99.609v16.49h-118.5Zm1066.175-.69h19.06v64.74h62.86v17h-81.92Zm1882.73-2.4 50.15 123.81-17 7.39-33.15-83.98-32.97 85.18-17.18-7.56Zm-481.62 0 50.15 123.81-17 7.39-33.15-83.98-32.97 85.18-17.18-7.56Zm-727.38-.35c5.38 0 10.45.98 15.2 2.92 4.75 1.95 8.9 4.58 12.45 7.9s6.33 7.19 8.33 11.6c2.01 4.4 3.01 9.13 3.01 14.16 0 5.04-1 9.73-3.01 14.08-2 4.35-4.78 8.25-8.33 11.68-3.55 3.21-7.7 5.78-12.45 7.73s-9.82 2.92-15.2 2.92-10.45-.97-15.2-2.92-8.9-4.52-12.45-7.73a41.6 41.6 0 0 1-8.24-11.68c-2.06-4.35-3.09-9.04-3.09-14.08 0-5.03 1.03-9.76 3.09-14.16 2.06-4.41 4.81-8.28 8.24-11.6 3.55-3.32 7.7-5.95 12.45-7.9 4.75-1.94 9.82-2.92 15.2-2.92m-1388.9 0c5.38 0 10.45.98 15.2 2.92 4.75 1.95 8.9 4.58 12.45 7.9s6.32 7.19 8.33 11.6c2 4.4 3 9.13 3 14.16 0 5.04-1 9.73-3 14.08-2.01 4.35-4.78 8.25-8.33 11.68-3.55 3.21-7.7 5.78-12.45 7.73s-9.82 2.92-15.2 2.92-10.45-.97-15.2-2.92-8.9-4.52-12.45-7.73a41.4 41.4 0 0 1-8.24-11.68c-2.07-4.35-3.096-9.04-3.096-14.08 0-5.03 1.026-9.76 3.096-14.16 2.06-4.41 4.8-8.28 8.24-11.6 3.55-3.32 7.7-5.95 12.45-7.9 4.75-1.94 9.82-2.92 15.2-2.92m2666.6-.68H3048v153.18h-19.06Zm-481.62 0h19.06v153.18h-19.06Zm-500.14 0h19.06v64.4h19.58v17.86h-19.58v70.92h-19.06Zm-223.29 0h19.06v72.64h-19.06Zm-321.64 0h18.89v88.09h-18.89v-39.49h-22.5v-15.12h22.5Zm-315.86 0h19.06v98.05h-19.06v-39.32h-41.73v-14.77h41.73v-10.99h-41.73v-15.11h41.73Zm-751.41 0h19.07v72.64h-19.07Zm1540.41-1.03H1996v16.31h36.07v16.32h-92.91v-16.32h36.23Zm-538.23-2.24c4.7 0 9.16.78 13.4 2.32 4.23 1.55 7.9 3.75 10.99 6.61 3.2 2.64 5.75 5.87 7.64 9.71 1.89 3.83 2.84 7.87 2.84 12.1 0 4.24-.95 8.25-2.84 12.03a31.1 31.1 0 0 1-7.64 9.78c-3.09 2.75-6.76 4.93-10.99 6.53-4.24 1.6-8.7 2.4-13.4 2.4-4.69 0-9.16-.8-13.39-2.4-4.24-1.6-7.9-3.78-10.99-6.53a31 31 0 0 1-7.65-9.78c-1.89-3.78-2.83-7.79-2.83-12.03 0-4.23.94-8.27 2.83-12.1 1.89-3.84 4.44-7.07 7.65-9.71 3.09-2.86 6.75-5.06 10.99-6.61 4.23-1.54 8.7-2.32 13.39-2.32m677.67-4.46c14.31 24.61 21.47 51.8 21.47 81.57 0 29.88-7.16 57.36-21.47 82.43l-16.66-4.64c12.25-25.87 18.38-51.8 18.38-77.79.11-25.53-6.01-51.12-18.38-76.76Zm-213.33 0 16.49 4.81c-12.26 25.64-18.32 51.23-18.21 76.76q0 38.985 18.21 77.79l-16.49 4.64c-14.31-25.07-21.47-52.55-21.47-82.43 0-29.77 7.16-56.96 21.47-81.57"/></g></svg>